<?xml version="1.0" encoding="utf-8"?>
<!-- Generator: Adobe Illustrator 16.0.0, SVG Export Plug-In . SVG Version: 6.00 Build 0)  -->
<!DOCTYPE svg PUBLIC "-//W3C//DTD SVG 1.1//EN" "http://www.w3.org/Graphics/SVG/1.1/DTD/svg11.dtd">
<svg version="1.1"
	 id="svg8" xmlns:rdf="http://www.w3.org/1999/02/22-rdf-syntax-ns#" xmlns:dc="http://purl.org/dc/elements/1.1/" xmlns:sodipodi="http://sodipodi.sourceforge.net/DTD/sodipodi-0.dtd" xmlns:svg="http://www.w3.org/2000/svg" xmlns:cc="http://creativecommons.org/ns#" xmlns:inkscape="http://www.inkscape.org/namespaces/inkscape" inkscape:version="0.92.3 (2405546, 2018-03-11)" sodipodi:docname="call center.svg"
	 xmlns="http://www.w3.org/2000/svg" xmlns:xlink="http://www.w3.org/1999/xlink" x="0px" y="0px" width="4500px" height="3500px"
	 viewBox="0 0 4500 3500" enable-background="new 0 0 4500 3500" xml:space="preserve">
<defs>
	
	
		<inkscape:perspective  inkscape:vp_y="0 : 1000 : 0" sodipodi:type="inkscape:persp3d" inkscape:vp_x="0 : 463.02085 : 1" inkscape:vp_z="1190.625 : 463.02085 : 1" id="perspective11035" inkscape:persp3d-origin="595.3125 : 308.68056 : 1">
		</inkscape:perspective>
</defs>
<sodipodi:namedview  units="px" showguides="true" showgrid="false" inkscape:cy="2108.7927" inkscape:cx="3064.4791" inkscape:zoom="0.11313708" pagecolor="#ffffff" borderopacity="1.0" bordercolor="#666666" id="base" inkscape:current-layer="layer2" inkscape:window-width="1920" inkscape:window-height="1001" inkscape:window-x="-9" inkscape:window-y="-9" inkscape:window-maximized="1" inkscape:guide-bbox="true" inkscape:pageopacity="0.0" inkscape:pageshadow="2" inkscape:document-units="mm">
	<sodipodi:guide  inkscape:locked="false" orientation="3300,0" position="26.458313,899.58337" id="guide825"></sodipodi:guide>
	<sodipodi:guide  inkscape:locked="false" orientation="0,4300.0004" position="684.196,26.458361" id="guide827"></sodipodi:guide>
	<sodipodi:guide  inkscape:locked="false" orientation="0,-4300.0004" position="2252.2658,899.58338" id="guide831">
		</sodipodi:guide>
	<sodipodi:guide  inkscape:locked="false" orientation="1,0" position="1157.8001,124.85027" id="guide21309"></sodipodi:guide>
</sodipodi:namedview>
<g id="layer2" inkscape:label="Layer 2" inkscape:groupmode="layer">
	<path id="path14513-6" sodipodi:nodetypes="sscccccccccccccccccs" inkscape:connector-curvature="0" fill="#F2F4FF" d="
		M2178.377,429.606c-281.501-0.816-628.501,78.986-855.383,347.813c-106.464,126.146-159.783,244.665-182.233,354.207
		c-129.722,108.902-204.731,269.533-204.957,438.906c0.198,104.746,29.049,207.442,83.432,296.965
		c-222.044,85.044-368.679,298.17-368.739,535.943c0.271,160.017,67.317,312.658,184.972,421.116
		c3.697,6.018,5.949,9.325,5.949,9.325l-280.653,244.859h3462.783c0,0-139.685-37.866-261.646-102.555
		c75.298-66.57,118.489-162.193,118.655-262.698c-0.16-144.896-89.238-274.84-224.326-327.242
		c113.992-111.156,178.287-263.62,178.31-422.837c-0.553-209.393-111.917-402.845-292.715-508.477
		c35.157-72.649,53.532-152.272,53.765-232.979c-0.001-297.35-241.051-538.399-538.4-538.398
		c-66.799,0.002-133.016,12.437-195.266,36.666c-74.954-91.654-165.268-152.755-250.387-206.367
		C2543.525,471.017,2377.307,430.183,2178.377,429.606L2178.377,429.606z"/>
	<path id="path14515-02" inkscape:connector-curvature="0" fill="#E7EAFF" d="M3680.518,1967.962
		c-151.917,0.37-284.941,31.952-361.03,119.114c-270.536,309.907-220.882,460.169-552.205,483.178s-551.904-56.35-673.999,226.069
		c-101.8,235.472-438.61,135.471-609.122,282.419h2539.388c0,0-139.686-37.866-261.646-102.555
		c75.297-66.57,118.488-162.193,118.655-262.698c-0.161-144.896-89.237-274.84-224.325-327.242
		c110.502-108.017,174.279-255.032,177.654-409.521C3781.635,1971.051,3730.07,1967.841,3680.518,1967.962L3680.518,1967.962z"/>
	<path id="rect1755-4" inkscape:connector-curvature="0" fill="#CECFFF" d="M3421.256,1476.491h-327.424
		c-57.178,0-115.93,46.032-131.73,103.209l-199.646,722.466c-15.801,57.178,17.51,103.21,74.688,103.21h327.423
		c57.179,0,115.93-46.032,131.73-103.21l199.647-722.466C3511.744,1522.523,3478.434,1476.491,3421.256,1476.491L3421.256,1476.491z
		"/>
	<path id="path1705-11" sodipodi:nodetypes="csssscc" inkscape:connector-curvature="0" fill="#CECFFF" d="M3178.529,2285.173
		l140.578,755.031c3.908,20.989-17.188,38.538-38.537,38.538h-12.978c-21.35,0-43.638-17.158-47.88-38.538l-219.209-755.031
		H3178.529z"/>
	<path id="rect1757-55" sodipodi:nodetypes="sssssssss" inkscape:connector-curvature="0" fill="#A5A3FF" d="M3302.854,2362.566
		h-615.24c-49.959,0-90.178,41.727-90.178,93.558v9.906c0,51.831,40.219,93.559,90.178,93.559h615.24
		c49.959,0,90.178-41.728,90.178-93.559v-9.906C3393.031,2404.293,3352.813,2362.566,3302.854,2362.566z"/>
	<g id="g7958" transform="matrix(-1,0,0,1,954.47123,-1.0000003e-4)">
		<path id="path4297-9-2" inkscape:connector-curvature="0" fill="#3D3D3D" d="M-2081.418,1092.352
			c0,0-61.548,258.27-148.979,390.57c-87.433,132.298-24.16,231.235,96.635,223.182c120.795-8.053,362.385-81.68,362.385-81.68
			l95.485-32.212c0,0,62.124-103.538-2.3-184.068c-64.424-80.529-64.424-227.784-64.424-227.784
			S-2010.667,1027.354-2081.418,1092.352L-2081.418,1092.352z"/>
		<path id="path4262-71-0" sodipodi:nodetypes="cccccccccccccccsscc" inkscape:connector-curvature="0" fill="#FF6853" d="
			M-1902.328,1428.593c-34.168,0.112-61.394,5.958-61.394,5.958c-52.7,63.248-156.477,102.053-214.757,163.508
			c-42.301,46.368-168.389,268.445-194.42,314c-1.515,2.649-2.832,5.319-4.027,7.995l144.351,14.642l63.401-95.085l-49.313,304.893
			h381.948l85.856-201.913c37.655-9.027,59.911-28.026,68.294-52.758l71.942,73.918c0,0,3.436,3.336,3.991,2.605l12.241,21.602
			l137.074-8.658c-30.811-84.231-71.179-165.777-104.126-238.071c-15.872-34.829-44.608-99.879-68.116-125.782
			c-67.418-74.285-115.64-100.262-154.563-141.849C-1809.746,1436.674-1861.092,1428.458-1902.328,1428.593L-1902.328,1428.593z"/>
		<path id="path4242-8-1" sodipodi:nodetypes="ccc" inkscape:connector-curvature="0" fill="#F69CB3" d="M-1758.258,1208.805
			l23.813,60.226C-1650.675,1259.944-1689.205,1069.921-1758.258,1208.805z"/>
		<path id="path4248-13-5" sodipodi:nodetypes="ccccccc" inkscape:connector-curvature="0" fill="#F6C6C0" d="M-1950.243,1269.031
			c0,0,5.954,81.878,4.466,117.607c-1.488,35.729-0.744,55.082-0.744,55.082l87.295,79.365l45.571-42.52l-24.639-91.953
			L-1950.243,1269.031z"/>
		<path id="path4250-3-9" sodipodi:nodetypes="cccscc" inkscape:connector-curvature="0" fill="#F69CB3" d="M-1950.243,1269.031
			l111.949,117.581l18.636,69.551c-18.143,3.796-37.996,3.084-52.429-10.721c-34.239-32.751-44.661-116.118-44.661-116.118
			L-1950.243,1269.031z"/>
		<path id="path4252-1-6" sodipodi:nodetypes="ccccc" inkscape:connector-curvature="0" fill="#F6C6C0" d="M-1950.243,1269.031
			c-83.769-9.088-45.238-199.11,23.815-60.226c18.556-31.018,57.388-76.459,36.316-136.32
			c62.385,20.322,114.135,36.057,181.059,17.896C-1682.4,1381.858-1828.667,1559.066-1950.243,1269.031L-1950.243,1269.031z"/>
		<path id="path4254-4-7" sodipodi:nodetypes="cccscc" inkscape:connector-curvature="0" fill="#F69CB3" d="M-1946.521,1229.581
			c0.371-1.489-4.095-23.075-16.375-37.962c-12.283-14.887-22.703,2.978-22.703,2.978s11.165-3.349,17.492,7.072
			c6.326,10.42-14.887,23.446,4.838,36.101C-1943.544,1250.422-1946.521,1229.581-1946.521,1229.581L-1946.521,1229.581z"/>
		<path id="path4256-8-2" sodipodi:nodetypes="cccccc" inkscape:connector-curvature="0" fill="#FFFFFF" d="M-1859.226,1521.084
			l-87.245-87.245l0.357-29.864c-30.521,21.481-34.376,55.295-29.585,73.291l55.258,114.387L-1859.226,1521.084z"/>
		<path id="path4258-8-4" sodipodi:nodetypes="cccccc" inkscape:connector-curvature="0" fill="#FFFFFF" d="M-1813.655,1478.565
			l-15.024-55.995c31.866,7.599,61.16,52.241,53.834,81.719c-2.355,8.719-23.584,84.557-23.584,84.557l-60.797-67.762
			L-1813.655,1478.565z"/>
		<path id="path4260-0-9" sodipodi:nodetypes="cccscsscscc" inkscape:connector-curvature="0" fill="#3D3D3D" d="M-1709.052,1104.76
			c-19.007,70.937-140.602,165.211-209.581,134.847l-7.794-30.802c0,0-20.008-44.327-44.615-50.429
			c-24.607-6.101-110.376-66.024-110.376-66.024s30.208-118.907,106.137-171.251c75.929-52.345,194.277,2.028,263.304,44.019
			c39.693,24.147,29.758,74.313,29.758,74.313c17.832,39.114,47.168,71.326,23.009,117.343
			c-24.159,46.018-48.673,53.866-48.673,53.866S-1703.712,1151.87-1709.052,1104.76L-1709.052,1104.76z"/>
		<path id="path14884-3-0" sodipodi:nodetypes="ccccc" inkscape:connector-curvature="0" fill="#E0523C" d="M-1750.681,1942.592
			c-34.357,0-78.037-3.395-122.486-78.066c-35.148,35.687-77.492,69.589-163.191,52.926l221.957,174.819L-1750.681,1942.592z"/>
		<path id="path4200-9-7" inkscape:connector-curvature="0" fill="#E0523C" d="M-1682.387,1889.834v-71.396l71.942,145.314
			L-1682.387,1889.834z"/>
		<path id="path4286-3-2-2" inkscape:connector-curvature="0" fill="#F6CDC1" d="M-1090.73,1686.108
			c-17.524,0.392-97.218,51.441-97.218,51.441c-1.642-0.845-4.181-37.173-22.347-19.955c-13.397,11.395-23.417,51.031-24.008,52.481
			c-3.701,9.078-8.536,19.935-12.392,27.659c-86.585,42.699-256.387,136.821-347.518,190.224
			c18.402,45.27,77.727,66.807,113.641,53.079c105.617-41.752,180.024-118.167,269.307-192.437l72.504-27.378
			c10.644-6.517,35.56-69.25,48.348-93.135c12.388-23.139,14.83-37.84,2.427-41.534c-0.4-0.119-0.815-0.229-1.246-0.324
			C-1089.664,1686.134-1090.165,1686.095-1090.73,1686.108L-1090.73,1686.108z"/>
		<path id="path4290-2-6" sodipodi:nodetypes="ccccc" inkscape:connector-curvature="0" fill="#FFFFFF" d="M-1594.212,1987.959
			l-16.232-24.207l126.697-99.643l6.881,56.932L-1594.212,1987.959z"/>
		<path id="path4231-7-1" sodipodi:nodetypes="cccccc" inkscape:connector-curvature="0" fill="#E0523C" d="M-2169.173,1839.611
			l12.563-46.883l8.268-30.853l-116.854,125.961l55.146,14.788L-2169.173,1839.611z"/>
		<path id="path4286-8-1" sodipodi:nodetypes="cccccccccc" inkscape:connector-curvature="0" fill="#F6C6C0" d="M-2312.736,1869.845
			c-42.081,21.906-65.791,92.447-39.993,120.958c76.896,83.069,228.358,83.922,329.318,139.72l4.798,13.982h172.844
			c2.734-1.116,5.242-2.392,6.891-4.595c7.492-10.553-3.49-20.627-27.506-31.216c-61.789-35.526-80.326-45.729-126.709-33.925
			c-84.282-41.416-157.183-91.11-239.48-140.073C-2266.861,1914.298-2288.997,1888.666-2312.736,1869.845z"/>
		<path id="path4288-0-1" sodipodi:nodetypes="ccccc" inkscape:connector-curvature="0" fill="#FFFFFF" d="M-2232.574,1934.696
			l22.523-32.071l-173.191-60.156l6.316,77.585L-2232.574,1934.696z"/>
	</g>
	<path id="rect4732-55" inkscape:connector-curvature="0" fill="#CECFFF" d="M2320.732,2056.391
		c-9.499,0-17.146,7.647-17.146,17.147v23.587c0,9.498,7.647,17.146,17.146,17.146h23.587c9.5,0,17.147-7.648,17.147-17.146v-23.587
		c0-9.5-7.647-17.147-17.147-17.147H2320.732z M2397.488,2056.391c-9.5,0-17.146,7.647-17.146,17.147v23.587
		c0,9.498,7.647,17.146,17.146,17.146h23.586c9.5,0,17.146-7.648,17.146-17.146v-23.587c0-9.5-7.646-17.147-17.146-17.147H2397.488z
		 M2471.727,2056.391c-9.5,0-17.147,7.647-17.147,17.147v23.587c0,9.498,7.647,17.146,17.147,17.146h23.586
		c9.5,0,17.146-7.648,17.146-17.146v-23.587c0-9.5-7.646-17.147-17.146-17.147H2471.727z M2547.853,2056.391
		c-9.5,0-17.147,7.647-17.147,17.147v23.587c0,9.498,7.647,17.146,17.147,17.146h23.587c9.499,0,17.146-7.648,17.146-17.146v-23.587
		c0-9.5-7.647-17.147-17.146-17.147H2547.853z M2624.607,2056.391c-9.5,0-17.147,7.647-17.147,17.147v23.587
		c0,9.498,7.647,17.146,17.147,17.146h23.586c9.5,0,17.148-7.648,17.148-17.146v-23.587c0-9.5-7.648-17.147-17.148-17.147H2624.607z
		 M2698.846,2056.391c-9.5,0-17.147,7.647-17.147,17.147v23.587c0,9.498,7.647,17.146,17.147,17.146h23.586
		c9.5,0,17.148-7.648,17.148-17.146v-23.587c0-9.5-7.648-17.147-17.148-17.147H2698.846z"/>
	<path id="rect1633-02" inkscape:connector-curvature="0" fill="#A5A3FF" d="M2294.355,2075.572h469.918
		c15.773,0,28.472,12.697,28.472,28.471v11.99c0,15.773-12.698,28.472-28.472,28.472h-469.918
		c-15.773,0-28.471-12.698-28.471-28.472v-11.99C2265.885,2088.27,2278.582,2075.572,2294.355,2075.572z"/>
	<path id="path1707-6" sodipodi:nodetypes="csssscc" inkscape:connector-curvature="0" fill="#A5A3FF" d="M3564.278,2285.173
		l140.578,755.031c3.909,20.989-17.188,38.538-38.538,38.538h-12.977c-21.35,0-43.639-17.158-47.88-38.538l-219.208-755.031
		H3564.278z"/>
	<path id="path1785-54" inkscape:connector-curvature="0" fill="#CECFFF" d="M2798.573,2559.589v396.839
		c0.267-0.006,0.532-0.016,0.8-0.016h117.73c0.268,0,0.532,0.01,0.799,0.016v-396.839H2798.573z"/>
	<path id="path1787-2" inkscape:connector-curvature="0" fill="#A5A3FF" d="M2769.578,2956.412
		c-49.959,0-90.178,41.727-90.178,93.558v28.772h357.675v-28.772c0-51.831-40.22-93.558-90.177-93.558H2769.578z"/>
	<path id="circle51979-6" inkscape:connector-curvature="0" fill="#E3E1FF" d="M2510.69,877.371
		c0,220.019-178.361,398.38-398.381,398.38l0,0c-220.02,0-398.38-178.361-398.38-398.38s178.361-398.38,398.38-398.38
		S2510.69,657.351,2510.69,877.371L2510.69,877.371z"/>
	<path id="rect3745-85" inkscape:connector-curvature="0" fill="#A5A3FF" d="M1386.851,2089.808
		c-29.938,0-54.04,24.103-54.04,54.042c0,0.22,0.012,0.436,0.016,0.655h540.374c0.002-0.22,0.015-0.436,0.015-0.655
		c0-29.939-24.102-54.042-54.04-54.042H1386.851z"/>
	<path id="path3756-8" sodipodi:nodetypes="csssscc" inkscape:connector-curvature="0" fill="#A5A3FF" d="M1626.78,2285.173
		l-140.578,755.031c-3.909,20.989,17.188,38.538,38.538,38.538h12.976c21.35,0,43.639-17.158,47.881-38.538l219.209-755.031H1626.78
		z"/>
	<path id="rect1648-6" sodipodi:nodetypes="sssssssss" inkscape:connector-curvature="0" fill="#B7BBFF" d="M1016.252,2144.505
		h2722.08c22.674,0,40.928,18.254,40.928,40.927v64.475c0,22.674-18.254,40.929-40.928,40.929h-2722.08
		c-22.674,0-40.928-18.255-40.928-40.929v-64.475C975.325,2162.758,993.578,2144.505,1016.252,2144.505L1016.252,2144.505z"/>
	<path id="path51738-1" inkscape:connector-curvature="0" fill="#CECFFF" d="M1716.195,2467.795c4.558,0.33,8.675,1.65,12.213,3.918
		c19.503,12.505,17.493,50.438-4.49,84.727c-17.471,27.247-43.004,44.83-62.958,43.354c-8.482,12.743-22.75,36.014-37.692,68.367
		c11.693-6.449,26.035-10.918,41.073-12.797c40.419-5.029,75.504,9.531,78.366,32.523l0,0c2.86,22.991-27.587,45.705-68.006,50.734
		c0,0,0,0-0.001,0c-30.963,3.829-59.93-3.84-72.337-19.152c-7.438,20.888-14.406,44.006-20.217,69.156
		c7.694-2.607,15.919-4.483,24.314-5.545c40.419-5.029,75.504,9.531,78.366,32.521v0.002c2.861,22.99-27.587,45.704-68.006,50.732
		c0,0,0,0-0.001,0.001c-16.76,2.077-33.415,0.821-47.182-3.562c-3.833,35.663-4.885,74.174-1.795,115.169
		c0.706,9.373-6.32,17.543-15.693,18.249c-9.373,0.705-17.544-6.32-18.249-15.693c-3.713-49.262-1.681-95.217,3.94-137.262
		c-20.511,4.128-48.02-15.451-65.382-46.535c-19.846-35.568-19.534-73.553,0.697-84.842c20.231-11.29,52.721,8.393,72.567,43.961
		l0.001,0.002c2.392,4.287,4.534,8.701,6.395,13.174c5.29-20.977,11.304-40.565,17.669-58.627
		c-14.732-7.794-29.105-22.872-39.449-41.383c-19.846-35.568-19.534-73.553,0.697-84.842c20.231-11.291,52.721,8.393,72.567,43.961
		l0.001,0.001c0.283,0.535,0.563,1.072,0.838,1.61c13.445-26.155,25.326-44.608,31.943-54.244
		c-3.51-18.027,2.91-42.455,16.903-64.316C1670.741,2483.937,1696.245,2466.355,1716.195,2467.795L1716.195,2467.795z"/>
	<path id="path51740-5" inkscape:connector-curvature="0" fill="#CECFFF" d="M1192.637,2467.795
		c-4.559,0.33-8.676,1.65-12.213,3.918c-19.504,12.505-17.493,50.438,4.491,84.727c17.469,27.247,43.003,44.83,62.958,43.354
		c8.482,12.743,22.75,36.014,37.692,68.367c-11.693-6.449-26.035-10.918-41.073-12.797c-40.419-5.029-75.504,9.531-78.366,32.523
		l0,0c-2.861,22.991,27.586,45.705,68.005,50.734c0,0,0,0,0.001,0c30.963,3.829,59.93-3.84,72.337-19.152
		c7.437,20.888,14.407,44.006,20.218,69.156c-7.695-2.607-15.92-4.482-24.315-5.545c-40.419-5.029-75.504,9.531-78.365,32.521v0.002
		c-2.861,22.99,27.586,45.704,68.005,50.732c0,0,0,0.001,0.001,0.001c16.76,2.077,33.415,0.821,47.183-3.562
		c3.833,35.663,4.884,74.174,1.794,115.169c-0.707,9.373,6.32,17.543,15.693,18.249c9.373,0.705,17.543-6.32,18.249-15.693
		c3.713-49.262,1.681-95.217-3.94-137.262c20.511,4.128,48.019-15.451,65.382-46.535c19.846-35.568,19.534-73.553-0.697-84.842
		c-20.231-11.29-52.721,8.393-72.567,43.961c-0.001,0-0.001,0.001-0.001,0.001c-2.392,4.288-4.534,8.702-6.395,13.175
		c-5.29-20.977-11.305-40.565-17.669-58.627c14.732-7.794,29.105-22.872,39.449-41.383c19.846-35.568,19.534-73.553-0.697-84.842
		c-20.231-11.291-52.721,8.393-72.567,43.961c-0.001,0-0.001,0-0.001,0c-0.283,0.536-0.563,1.073-0.838,1.611
		c-13.445-26.155-25.327-44.608-31.943-54.244c3.51-18.027-2.909-42.455-16.903-64.316
		C1238.091,2483.937,1212.587,2466.355,1192.637,2467.795L1192.637,2467.795z"/>
	<path id="path51742-9" inkscape:connector-curvature="0" fill="#A5A3FF" d="M1424.374,2316.271
		c-1.411-0.087-2.815-0.053-4.205,0.104c-23.022,2.595-37.988,37.508-33.428,77.982c3.204,28.24,15.352,52.905,31.226,63.401
		c0.976,7.678,2.02,16.053,3.119,25.115c-4.151-2.758-8.604-5.241-13.241-7.385c-28.914-13.273-58.474-10.703-66.025,5.743l0,0
		c-7.551,16.446,9.766,40.539,38.68,53.814c0,0,0,0,0.001,0c16.511,7.563,34.075,10.251,47.395,7.253
		c1.773,16.408,3.566,33.892,5.326,52.16c-4.312-2.907-8.96-5.517-13.81-7.755c-28.914-13.273-58.474-10.703-66.025,5.744l0,0
		c-7.55,16.447,9.768,40.54,38.681,53.814c16.096,7.373,33.218,10.124,46.435,7.459c1.517,18.521,2.944,37.501,4.226,56.798
		c-4.484-3.066-9.342-5.812-14.421-8.147c-28.913-13.274-58.472-10.703-66.023,5.742c-7.55,16.447,9.768,40.539,38.681,53.813
		c15.551,7.136,32.1,9.97,45.164,7.733c2.534,53.027,3.648,106.639,2.314,156.844c-0.357,9.392,6.967,17.295,16.36,17.651
		s17.295-6.968,17.652-16.36c0.004-0.129,0.008-0.258,0.01-0.387c1.388-52.197,0.212-107.692-2.433-162.336
		c14.745,1.362,34.109-7.449,49.917-22.717c22.868-22.118,31.207-50.594,18.626-63.602v-0.001
		c-12.582-13.007-41.319-5.62-64.187,16.498c-2.819,2.729-5.471,5.614-7.916,8.611c-1.247-18.474-2.625-36.608-4.08-54.331
		c14.622,0.754,33.339-8.031,48.661-22.842c22.868-22.119,31.206-50.596,18.624-63.603l0,0
		c-12.582-13.007-41.319-5.62-64.186,16.498c-3.056,2.968-5.913,6.118-8.521,9.394c-1.716-17.711-3.463-34.686-5.19-50.628
		c14.503,0.335,32.74-8.411,47.706-22.877c22.868-22.12,31.207-50.596,18.626-63.603l0,0c-12.581-13.01-41.319-5.623-64.188,16.495
		c0,0,0,0.001-0.001,0.002c-3.259,3.17-6.292,6.548-9.036,10.063c-1.003-8.232-1.957-15.854-2.861-22.955
		c14.271-13.098,21.406-40.916,18.087-70.514C1465.872,2347.322,1446.1,2317.63,1424.374,2316.271L1424.374,2316.271z"/>
	<path id="path51736-31" inkscape:connector-curvature="0" fill="#CECFFF" d="M1073.805,2467.795
		c4.558,0.33,8.675,1.65,12.213,3.918c19.503,12.505,17.493,50.438-4.49,84.727c-17.471,27.247-43.004,44.83-62.958,43.354
		c-8.482,12.743-22.75,36.014-37.692,68.367c11.693-6.449,26.035-10.918,41.073-12.797c40.419-5.029,75.504,9.531,78.366,32.523l0,0
		c2.861,22.991-27.587,45.705-68.006,50.734c0,0,0,0-0.001,0c-30.963,3.83-59.93-3.84-72.337-19.152
		c-7.437,20.888-14.406,44.006-20.217,69.156c7.694-2.607,15.919-4.482,24.314-5.545c40.419-5.03,75.505,9.531,78.366,32.521v0.002
		c2.86,22.99-27.587,45.704-68.006,50.732c0,0.001-0.001,0.001-0.001,0.001c-16.76,2.077-33.415,0.821-47.182-3.562
		c-3.833,35.663-4.885,74.174-1.795,115.169c0.706,9.373-6.32,17.543-15.693,18.249c-9.373,0.705-17.543-6.32-18.249-15.693
		c-3.713-49.262-1.681-95.217,3.94-137.262c-20.511,4.128-48.02-15.451-65.382-46.535c-19.846-35.568-19.534-73.553,0.697-84.842
		c20.231-11.29,52.721,8.393,72.567,43.961l0.001,0.002c2.392,4.287,4.534,8.701,6.395,13.174
		c5.29-20.977,11.304-40.565,17.669-58.627c-14.732-7.794-29.104-22.872-39.449-41.383c-19.846-35.568-19.534-73.553,0.697-84.842
		c20.231-11.291,52.721,8.393,72.567,43.961l0.001,0.001c0.283,0.535,0.563,1.072,0.838,1.61
		c13.446-26.155,25.327-44.608,31.943-54.244c-3.51-18.027,2.91-42.455,16.903-64.316
		C1028.352,2483.937,1053.855,2466.355,1073.805,2467.795L1073.805,2467.795z"/>
	<path id="ellipse15434-9-3" inkscape:connector-curvature="0" fill="#CECFFF" d="M550.247,2467.795
		c-4.559,0.33-8.675,1.65-12.213,3.918c-19.503,12.505-17.493,50.438,4.491,84.727c17.47,27.247,43.003,44.83,62.958,43.354
		c8.481,12.743,22.75,36.014,37.691,68.367c-11.693-6.449-26.034-10.918-41.073-12.797c-40.419-5.029-75.504,9.531-78.366,32.523
		l0,0c-2.86,22.991,27.587,45.705,68.006,50.734c0,0,0.001,0,0.001,0c30.963,3.829,59.93-3.84,72.337-19.152
		c7.438,20.888,14.407,44.006,20.218,69.156c-7.695-2.607-15.92-4.483-24.315-5.545c-40.419-5.029-75.504,9.531-78.366,32.521v0.002
		c-2.86,22.99,27.587,45.704,68.006,50.732c0,0,0.001,0.001,0.001,0.001c16.76,2.077,33.415,0.821,47.183-3.562
		c3.833,35.663,4.884,74.174,1.794,115.169c-0.715,9.372,6.304,17.549,15.676,18.264c9.373,0.715,17.549-6.304,18.264-15.677
		c0-0.01,0.001-0.021,0.002-0.031c3.714-49.262,1.681-95.217-3.94-137.262c20.512,4.128,48.02-15.451,65.382-46.535
		c19.846-35.568,19.534-73.553-0.697-84.842c-20.231-11.29-52.721,8.393-72.567,43.961l0,0.002
		c-2.393,4.287-4.535,8.701-6.396,13.174c-5.29-20.977-11.304-40.565-17.669-58.627c14.732-7.794,29.105-22.872,39.449-41.383
		c19.846-35.568,19.534-73.553-0.697-84.842c-20.231-11.291-52.721,8.393-72.567,43.961l0,0.001
		c-0.284,0.535-0.563,1.072-0.838,1.61c-13.445-26.155-25.327-44.608-31.943-54.244c3.51-18.027-2.91-42.455-16.904-64.316
		C595.7,2483.937,570.196,2466.355,550.247,2467.795L550.247,2467.795z"/>
	<path id="path52403-35" inkscape:connector-curvature="0" fill="#A5A3FF" d="M815.367,2316.271
		c-1.411-0.087-2.814-0.053-4.205,0.104c-23.021,2.595-37.988,37.508-33.428,77.982c3.204,28.24,15.352,52.905,31.226,63.401
		c0.976,7.678,2.02,16.053,3.119,25.115c-4.151-2.758-8.604-5.241-13.242-7.385c-28.914-13.273-58.474-10.703-66.025,5.743l0,0
		c-7.551,16.446,9.766,40.539,38.68,53.814c0,0,0,0,0.001,0c16.511,7.563,34.075,10.251,47.395,7.253
		c1.772,16.408,3.566,33.892,5.326,52.16c-4.312-2.907-8.96-5.517-13.81-7.755c-28.914-13.273-58.474-10.703-66.025,5.744l0,0
		c-7.551,16.447,9.768,40.54,38.681,53.814c16.096,7.373,33.218,10.124,46.435,7.459c1.517,18.521,2.943,37.501,4.226,56.798
		c-4.484-3.066-9.343-5.812-14.421-8.147c-28.913-13.274-58.472-10.703-66.023,5.742c-7.55,16.447,9.768,40.539,38.681,53.813
		c15.551,7.136,32.1,9.97,45.164,7.733c2.534,53.027,3.649,106.639,2.314,156.844c-0.355,9.392,6.97,17.294,16.362,17.649
		s17.294-6.97,17.65-16.362c0.004-0.128,0.008-0.255,0.01-0.383c1.388-52.197,0.212-107.692-2.433-162.336
		c14.746,1.362,34.109-7.449,49.917-22.717c22.868-22.118,31.207-50.594,18.626-63.603l0,0
		c-12.582-13.007-41.319-5.62-64.187,16.498c-2.818,2.729-5.471,5.614-7.916,8.611c-1.246-18.474-2.625-36.608-4.08-54.331
		c14.622,0.754,33.339-8.031,48.661-22.842c22.868-22.119,31.206-50.596,18.624-63.603l0,0
		c-12.582-13.007-41.319-5.62-64.186,16.498c-3.056,2.968-5.913,6.118-8.521,9.394c-1.716-17.711-3.463-34.686-5.19-50.628
		c14.503,0.334,32.74-8.411,47.706-22.877c22.869-22.12,31.207-50.596,18.626-63.603l0,0c-12.581-13.01-41.319-5.623-64.188,16.495
		l0,0.002c-3.26,3.17-6.293,6.549-9.036,10.063c-1.003-8.232-1.957-15.854-2.861-22.955c14.271-13.098,21.405-40.916,18.086-70.514
		C856.865,2347.322,837.094,2317.63,815.367,2316.271L815.367,2316.271z"/>
	<path id="rect1084-9-2" sodipodi:nodetypes="ccssscc" inkscape:connector-curvature="0" fill="#CECFFF" d="M613.491,2852.651
		l28.525,173.27c3.96,28.994,23.558,52.821,52.821,52.821h916.273c29.263,0,51.003-23.615,52.821-52.821l26.891-173.27H613.491z"/>
	<path id="rect1096-7-55" sodipodi:nodetypes="ccccc" inkscape:connector-curvature="0" fill="#B7BBFF" d="M613.491,2852.651
		l6.516,39.581H1684.68l6.144-39.581H613.491z"/>
	<path id="rect1082-5-04" sodipodi:nodetypes="sssssss" inkscape:connector-curvature="0" fill="#CECFFF" d="M600.586,2747.01
		h1104.513c29.264,0,52.822,23.558,52.822,52.82c0,29.264-23.558,52.821-52.821,52.821H600.586
		c-29.263,0-52.821-23.558-52.821-52.821C547.765,2770.567,571.323,2747.01,600.586,2747.01z"/>
	
		<path id="path4262-7-9-2-56" sodipodi:nodetypes="cccccccccccccccccccccccccscc" inkscape:connector-curvature="0" fill="#6584F7" d="
		M1781.583,1098.907c5.869,8.948,12.096,17.655,18.665,26.101c8.257,10.404,17.028,20.388,26.281,29.916
		c9.254,9.528,18.979,18.587,29.137,27.145c10.159,8.556,20.738,16.6,31.701,24.099c10.962,7.5,22.293,14.447,33.95,20.815
		c11.655,6.368,23.623,12.148,35.856,17.32c12.233,5.172,24.718,9.729,37.407,13.655c12.688,3.924,25.566,7.212,38.583,9.851
		c13.017,2.64,26.158,4.626,39.374,5.952c13.216,1.326,26.489,1.989,39.771,1.989c9.402,0,18.802-0.332,28.181-0.997
		c13.249-0.94,26.443-2.541,39.532-4.799s26.057-5.168,38.854-8.722c12.797-3.553,25.41-7.743,37.789-12.556
		c12.38-4.813,24.511-10.242,36.349-16.267c11.837-6.024,23.365-12.638,34.541-19.814c8.332-5.497,16.453-11.305,24.348-17.412
		c7.613-5.131,14.333-10.929,19.505-15.82c6.317-5.213,12.472-10.62,18.456-16.213c7.623-7.547,14.938-15.399,21.927-23.536
		c-13.585-16.653-34.984-41.664-66.686-80.744c-56.437-70.336-112.082-56.962-152.063-94.146
		c-28.297-35.048-48.667-42.06-89.794-39.069c-34.078,2.479-33.758-2.907-33.758-2.907c-16.928,7.939-41.416,20.6-78.834,33.765
		c-50.335,17.709-58.988,16.917-93.699,33.733C1861.077,1008.124,1808.648,1047.149,1781.583,1098.907L1781.583,1098.907z"/>
	<path id="rect3737-6" inkscape:connector-curvature="0" fill="#CECFFF" d="M1269.911,1370.811h743.266
		c39.587,0,73.813,31.87,76.743,71.456l34.724,469.316c2.929,39.587-26.583,71.456-66.169,71.456h-743.266
		c-39.587,0-73.814-31.869-76.743-71.456l-34.725-469.316C1200.813,1402.681,1230.324,1370.811,1269.911,1370.811L1269.911,1370.811
		z"/>
	<path id="rect3739-89" inkscape:connector-curvature="0" fill="#E3E1FF" d="M1609.062,1695.724
		c-27.757,0-57.078,17.109-63.527,38.791l-121.971,409.99h179.332l121.971-409.99c6.45-21.681-8.92-38.791-36.677-38.791H1609.062z"
		/>
	<path id="path52000-5" sodipodi:nodetypes="cccc" inkscape:connector-curvature="0" fill="#6584F7" d="M2411.79,1139.615
		l22.38,148.54l-191.698-118.75L2411.79,1139.615z"/>
	<path id="rect1697-32" sodipodi:nodetypes="csssscc" inkscape:connector-curvature="0" fill="#A5A3FF" d="M1110.732,2285.173
		l-140.578,755.031c-3.908,20.989,17.188,38.538,38.538,38.538h12.976c21.35,0,43.639-17.158,47.88-38.538l219.208-755.031H1110.732
		z"/>
	<path id="path3750-7" inkscape:connector-curvature="0" fill="#A5A3FF" d="M1780.948,1897.724l0.031,46.767h41.559l-0.031-46.767
		H1780.948z"/>
	<path id="path3752-14" inkscape:connector-curvature="0" fill="#A5A3FF" d="M1854.537,1897.724l0.032,46.767h41.558l-0.031-46.767
		H1854.537z"/>
	<path id="path3754-0" inkscape:connector-curvature="0" fill="#A5A3FF" d="M1918.598,1897.724l0.032,46.767h41.559l-0.032-46.767
		H1918.598z"/>
	<path id="path14526-2-5" sodipodi:nodetypes="cccccsssc" inkscape:connector-curvature="0" fill="#3D3D3D" d="M2092.873,589.01
		c0,0-38.712-2.135-49.01,46.273c-10.299,48.408,32.361,140.601,32.361,140.601c-7.186,65.854,14.946,118.432,72.346,57.132
		c25.978-29.839,41.194-194.379,41.194-194.379s104.295,16.099,147.362-16.754c43.066-32.853,88.97-130.967,29.375-149.553
		c-59.596-18.586-73.135,23.84-201.424,18.462C2098.078,487.983,2070.426,542.917,2092.873,589.01L2092.873,589.01z"/>
	<path id="path14528-51-7" sodipodi:nodetypes="cccccc" inkscape:connector-curvature="0" fill="#F6C6C0" d="M2113.43,802.762
		l-58.151,129.995l87.245,87.246l45.571-42.52l17.338-99.015L2113.43,802.762z"/>
	<path id="path1603-93-1" sodipodi:nodetypes="ccccc" inkscape:connector-curvature="0" fill="#F69CB3" d="M2096.385,801.141
		l100.956,64.646l-4.298,98.939c-47.917,2.303-68.989-105.555-68.989-105.555L2096.385,801.141z"/>
	<path id="path1614-8-5" sodipodi:nodetypes="cccccc" inkscape:connector-curvature="0" fill="#FFFFFF" d="M2142.523,1020.003
		l-87.245-87.246l15.089-33.308c-42.135-0.098-55.543,40.723-52.137,59.031l50.972,133.617L2142.523,1020.003z"/>
	<path id="path1616-6-7" sodipodi:nodetypes="cccccc" inkscape:connector-curvature="0" fill="#FFFFFF" d="M2188.094,977.484
		l7.292-46.092c31.193,10.005,52.132,38.119,42.58,66.953c-3.014,8.513-46.895,100.255-46.895,100.255l-48.548-78.596
		L2188.094,977.484z"/>
	<path id="path14522-30-3" sodipodi:nodetypes="ccc" inkscape:connector-curvature="0" fill="#F69CB3" d="M2288.217,740.432
		l23.966,60.166C2395.928,791.299,2356.921,601.375,2288.217,740.432z"/>
	<path id="path14524-69-7" sodipodi:nodetypes="cccc" inkscape:connector-curvature="0" fill="#3D3D3D" d="M2324.406,605.546
		c0,0,27.557,5.886,42.51,31.9c14.951,26.015-33.963,110.25-33.963,110.25L2324.406,605.546z"/>
	<path id="path14532-15-4" sodipodi:nodetypes="ccccc" inkscape:connector-curvature="0" fill="#F6C6C0" d="M2096.385,801.141
		c-83.792-8.876-45.74-198.995,23.664-60.286c18.478-31.063,57.195-76.603,35.973-136.411
		c62.435,20.165,114.225,35.77,181.104,17.439C2364.512,913.293,2218.689,1090.869,2096.385,801.141z"/>
	<path id="path14534-21-0" sodipodi:nodetypes="cccscc" inkscape:connector-curvature="0" fill="#F69CB3" d="M2100.007,761.681
		c0.368-1.49-4.152-23.064-16.472-37.92c-12.319-14.855-22.694,3.035-22.694,3.035s11.157-3.377,17.51,7.027
		c6.354,10.405-14.828,23.484,4.929,36.088C2103.036,782.515,2100.007,761.681,2100.007,761.681L2100.007,761.681z"/>
	<path id="path51328-57" inkscape:connector-curvature="0" fill="#A5A3FF" d="M2909.169,1255.1
		c-4.646-0.633-9.016,2.354-10.112,6.912c0,0-7.023,27.099-25.992,52.409c-18.968,25.31-48.145,48.136-96.149,41.684
		c-4.989-0.742-9.634,2.7-10.376,7.688c-0.742,4.989,2.701,9.634,7.689,10.376c0.084,0.013,0.168,0.024,0.254,0.035
		c54.842,7.371,91.768-20.243,113.19-48.828c21.424-28.586,29.075-58.839,29.075-58.839c1.32-4.867-1.556-9.883-6.424-11.202
		C2909.944,1255.23,2909.559,1255.152,2909.169,1255.1L2909.169,1255.1z"/>
	<path id="rect51330-0" inkscape:connector-curvature="0" fill="#3D3D3D" d="M2745.653,1343.379l21.58,2.9
		c9.673,1.3,16.412,10.133,15.112,19.806c-1.301,9.671-10.133,16.412-19.806,15.112l-21.58-2.9
		c-9.673-1.3-16.413-10.134-15.112-19.807C2727.146,1348.818,2735.98,1342.079,2745.653,1343.379z"/>
	<path id="path27159" inkscape:connector-curvature="0" fill="#CECFFF" d="M2913.923,1172.45c0,0,31.457-113.245-23.907-198.808
		s-178.676-33.974-178.676-33.974s4.834-24.667,27.093-46.926s144.663-24.796,206.318,8.548
		c61.655,33.345,81.159,242.219,36.489,308.278C2936.572,1275.629,2913.923,1172.45,2913.923,1172.45L2913.923,1172.45z"/>
	<path id="path51324-1" inkscape:connector-curvature="0" fill="#E3E1FF" d="M3009.332,1234.833
		c-6.153,45.779-44.396,78.42-85.418,72.906c-41.023-5.514-69.291-47.094-63.138-92.873l0,0
		c6.153-45.779,44.396-78.421,85.419-72.907C2987.218,1147.474,3015.486,1189.054,3009.332,1234.833L3009.332,1234.833z"/>
	<path id="path27163" inkscape:connector-curvature="0" fill="#6584F7" d="M3190.368,2285.173
		c10.108,46.518,18.345,125.962-27.673,171.979c-67.947,67.947-475.629,103.179-475.629,103.179l59.164,143.396l93.023,225.46
		H2733.56l-172.22-225.46l-76.857-100.613c-105.279-182.35,120.912-264.773,322.984-317.94H3190.368z"/>
	<path id="path27165" inkscape:connector-curvature="0" fill="#3362C4" d="M2561.338,2703.727h184.893l93.023,225.46h-105.695
		L2561.338,2703.727z"/>
	<path id="path27167" sodipodi:nodetypes="csccccccccc" inkscape:connector-curvature="0" fill="#6584F7" d="M2807.468,2285.173
		c-84.638,22.269-168.167,55.009-235.138,92.736c-81.549,45.94-135.967,101.852-105.402,187.787l-22.028,18.805l-76.773,128.706
		l-131.327,220.221l-89.865-41.816c0,0,46.45-120.074,101.52-247.494c29.269-67.722,57.06-132.346,71.881-168.163
		c42.707-103.209,217.096-190.781,217.096-190.781H2807.468z"/>
	<path id="path27169" sodipodi:nodetypes="ccccc" inkscape:connector-curvature="0" fill="#3362C4" d="M2248.455,2644.117
		l119.67,69.09l-131.326,220.221l-89.865-41.817C2146.935,2891.61,2193.384,2771.537,2248.455,2644.117z"/>
	<path id="path27171" sodipodi:nodetypes="cccccc" inkscape:connector-curvature="0" fill="#F6C6C0" d="M2863.334,2994.741
		l-24.08-65.555h-86.986h-18.709l51.328,91.479L2863.334,2994.741z"/>
	<path id="path27173" sodipodi:nodetypes="cccccc" inkscape:connector-curvature="0" fill="#FFFFFF" d="M2747.404,2953.625
		l36.148,88.84l76.135-7.064l3.648-40.659l-14.572-39.671L2747.404,2953.625z"/>
	<path id="path27175" sodipodi:nodetypes="cccccc" inkscape:connector-curvature="0" fill="#3D3D3D" d="M2617.501,3078.742h278.488
		l-32.653-84.001c-42.079,62.026-85.98-56.317-116.583-19.335c0,0-39.241,53.052-62.347,53.632
		C2637.461,3029.038,2608.961,3034.718,2617.501,3078.742L2617.501,3078.742z"/>
	<path id="path27177" inkscape:connector-curvature="0" fill="#3362C4" d="M2807.467,2285.173
		c-65.695,17.284-133.926,37.671-192.499,63.567l55.688-63.567H2807.467z"/>
	<path id="path27179" inkscape:connector-curvature="0" fill="#3362C4" d="M2472.66,2458.151
		c-16.732,30.87-20.377,66.373-5.733,107.545l-22.028,18.805l-52.712,88.368C2371.963,2569.536,2436.926,2491.937,2472.66,2458.151z
		"/>
	<path id="path27181" sodipodi:nodetypes="ccccc" inkscape:connector-curvature="0" fill="#F6C6C0" d="M2205.641,2986.813
		l31.157-53.385c-29.735-14.417-59.76-28.194-89.864-41.817l-36.355,85.234L2205.641,2986.813z"/>
	<path id="path27183" sodipodi:nodetypes="cccccc" inkscape:connector-curvature="0" fill="#FFFFFF" d="M2113.544,2924.573
		l-13.976,71.131l71.154,27.99l34.919-36.882l15.649-26.633L2113.544,2924.573z"/>
	<path id="path27185" sodipodi:nodetypes="cccccc" inkscape:connector-curvature="0" fill="#3D3D3D" d="M1934.087,2969.305
		l236.174,109.438l35.38-91.93c-65.508,36.422-48.115-81.472-92.097-62.239c0,0-75.554,24.371-96.445,14.479
		C1975.188,2917.906,1946.292,2926.154,1934.087,2969.305L1934.087,2969.305z"/>
	<path id="rect51966-8" inkscape:connector-curvature="0" fill="#6584F7" d="M2043.865,775.719l35.771-20.652
		c11.472-6.623,26.038-2.72,32.661,8.751l60.918,105.515c6.623,11.471,2.72,26.039-8.751,32.661l-35.771,20.652
		c-11.471,6.624-26.038,2.72-32.661-8.751l-60.918-105.515C2028.491,796.908,2032.394,782.341,2043.865,775.719z"/>
	<path id="path4286-4-2-85-9-3" sodipodi:nodetypes="cccccccccccccccc" inkscape:connector-curvature="0" fill="#F6C6C0" d="
		M2136.307,773.826v0.001c-0.389,0.001-0.787,0.012-1.2,0.041c-13.147,0.895-75.481,70.523-75.481,70.523
		s-12.343-29.541-21.31-15.813c-8.966,13.728-10.598,57.125-10.744,58.578c-1.265,12.645-5.169,20.746-6.946,27.317
		c0,0,0,0.001,0,0.001c-27.673,107.448-58.317,182.066-77.762,248.494c-5.493,15.926-16.665,39.194-26.243,62.408
		c40.77,24.814,88.437,36.431,123.823,44.504c38.665-92.536,45.518-263.991,51.442-333.073
		c26.19-21.116,64.414-51.611,70.249-82.175c2.846-18.962-19.45-31.32-17.025-43.033
		C2150.07,787.64,2148.372,773.854,2136.307,773.826L2136.307,773.826z"/>
	<path id="path27187" sodipodi:nodetypes="ccccc" inkscape:connector-curvature="0" fill="#FFFFFF" d="M2020.625,914.473
		l81.012,25.795l-4.795,47.947l-88.493-38.161L2020.625,914.473z"/>
	<path id="path27191" inkscape:connector-curvature="0" fill="#3362C4" d="M2069.295,1047.036c0,0-23.134,25.802-29.362,35.589
		c-6.229,9.787-32.031,60.502-54.274,102.32c-12.376,23.266-4.642,50.38,5.266,71.857c1.217,0.39,2.434,0.779,3.655,1.156
		c12.689,3.924,25.567,7.212,38.583,9.851c13.018,2.64,26.159,4.625,39.375,5.952c13.215,1.326,26.489,1.989,39.771,1.989
		c5.302,0,10.602-0.117,15.898-0.329L2069.295,1047.036z"/>
	<path id="path27189" sodipodi:nodetypes="ccccc" inkscape:connector-curvature="0" fill="#6584F7" d="M2096.842,988.214
		l-25.768,285.705c-49.493-7.88-105.692-17.211-154.454-48.542l91.728-275.322L2096.842,988.214z"/>
	<path id="rect4299" sodipodi:nodetypes="ssssscssss" inkscape:connector-curvature="0" fill="#CECFFF" d="M1472.931,421.258
		h-472.925c-24.353,0-43.958,19.606-43.958,43.957v323.041c0,24.351,19.605,43.958,43.958,43.958h401.03l71.895,73.659
		c17.009,17.427,43.957,7.243,43.957-17.11V465.215C1516.888,440.864,1497.282,421.258,1472.931,421.258z"/>
	<path id="path4320" sodipodi:nodetypes="ccccc" inkscape:connector-curvature="0" fill="#FFFFFF" d="M1443.282,519.059
		l-0.443,46.769H1053.12l0.442-46.769H1443.282z"/>
	<path id="path4340" sodipodi:nodetypes="ccccc" inkscape:connector-curvature="0" fill="#FFFFFF" d="M1294.26,666.314
		l-0.231,46.769H1053.12l0.231-46.769H1294.26z"/>
	<path id="path27235" sodipodi:nodetypes="ccccc" inkscape:connector-curvature="0" fill="#FFFFFF" d="M1443.282,519.059
		l-0.058,46.769h-74.375l0.058-46.769H1443.282z"/>
	<path id="path27237" sodipodi:nodetypes="ccccc" inkscape:connector-curvature="0" fill="#FFFFFF" d="M1438.926,666.314
		l-0.058,46.769h-74.375l0.058-46.769H1438.926z"/>
	<path id="path36271-3-2" sodipodi:nodetypes="ccssscc" inkscape:connector-curvature="0" fill="#CECFFF" d="M3504.383,2852.651
		l28.525,173.269c3.959,28.994,23.559,52.822,52.82,52.822h234.689c29.264,0,48.334-23.904,52.821-52.822l26.892-173.269H3504.383z"
		/>
	<path id="path36273-9-53" inkscape:connector-curvature="0" fill="#B7BBFF" d="M3504.383,2852.651l6.515,39.581h383.089
		l6.145-39.581H3504.383z"/>
	<path id="path36277-4-1" inkscape:connector-curvature="0" fill="#CECFFF" d="M3914.104,2484.399
		c-25.925,0.258-95.829,24.069-115.022,56.42c-18.796,31.683-12.873,62.973,4.766,85.412c-1.432,4.28-2.848,8.784-4.215,13.532
		c-12.445,43.244-21.805,106.854-10.531,188.894c1.206,9.321,9.74,15.9,19.063,14.694c9.32-1.205,15.9-9.739,14.694-19.062
		c-0.012-0.09-0.023-0.179-0.036-0.269c-1.693-12.32-2.885-24.162-3.654-35.53c12.924,6.513,28.943,6.698,43.901-4.533
		c19.114-14.352,28.075-64.641,23.006-71.394c-5.213-6.943-42.95-10.955-65.506-2.733c2.583-23.491,6.89-43.575,11.641-60.175
		c32.647,16.998,75.459,13.243,100.76-29.403c21.935-36.972,4.854-125.235-10.724-134.477
		C3920.613,2484.808,3917.808,2484.363,3914.104,2484.399L3914.104,2484.399z"/>
	<path id="path36281-2-345" inkscape:connector-curvature="0" fill="#B7BBFF" d="M3458.83,2532.316
		c-14.871,0.162-26.4,2.326-30.428,6.304c-10.805,10.67-8.164,102.505,22.045,133.091c26.208,26.535,58.447,28.467,84.805,16.607
		c5.067,5.922,10.342,12.59,15.555,20.022c-21.772,2.275-45.896,12.387-48.585,18.938c-3.204,7.812,18.134,54.224,40.246,63.298
		c17.218,7.065,32.604,2.929,43.464-6.525c1.766,7.144,3.193,14.546,4.196,22.204c1.008,9.344,9.399,16.104,18.743,15.096
		c9.346-1.006,16.105-9.398,15.098-18.743c-0.027-0.259-0.062-0.517-0.102-0.774c-7.676-58.619-35.996-103.912-60.799-133.453
		c25.561-27.225,33.477-70.289-1.86-106.066C3540.44,2541.287,3491.547,2531.957,3458.83,2532.316L3458.83,2532.316z"/>
	<path id="path36283-0-7" inkscape:connector-curvature="0" fill="#A5A3FF" d="M3869.715,2273.094
		c-31.406-0.494-90.266,13.746-111.578,39.703c-31.279,38.094-20.541,79.358,6.215,104.305c-0.677,1.804-1.348,3.65-2.018,5.546
		c-21.788,61.679-40.509,172.278-33.169,374.72c0.218,9.396,8.012,16.837,17.408,16.619c9.396-0.219,16.837-8.012,16.618-17.408
		c-0.003-0.147-0.008-0.295-0.016-0.44c-2.741-75.632-1.727-137.938,1.646-189.198c19.03,10.379,45.089,8.317,58.75-16.005
		c11.705-20.841-0.373-70.474-7.736-74.608c-5.428-3.048-25.552,2.027-42.896,11.267c5.866-40.359,13.385-70.292,21.026-92.257
		c27.67,10.127,60.367,5.627,84.484-23.747c27.281-33.224,21.5-124.915,9.764-134.551c-3.063-2.515-9.704-3.808-18.498-3.944
		H3869.715z"/>
	<path id="path36285-3-2" inkscape:connector-curvature="0" fill="#A5A3FF" d="M3623.795,2132.813
		c-0.656,0.021-1.263,0.098-1.813,0.229c-14.782,3.479-60.37,83.24-50.519,125.086c8.589,36.482,35.322,54.938,64.162,58.416
		c12.082,95.198,34.781,300.27,30.332,467.604c-0.359,9.392,6.963,17.297,16.355,17.655c9.392,0.359,17.297-6.964,17.656-16.355
		c0.004-0.132,0.008-0.264,0.01-0.396c2.984-112.184-5.857-239.533-15.74-340.962c16.742,3.82,35.379-1.455,46.217-20.75
		c11.703-20.842-0.374-70.475-7.736-74.608c-5.883-3.305-29.027,2.935-47.188,13.678c-2.119-18.288-4.107-34.429-5.902-48.535
		c35.863-10.021,64.861-42.61,53.37-91.422C3713.455,2181.914,3644.146,2132.111,3623.795,2132.813L3623.795,2132.813z"/>
	<path id="rect36299-9-195" inkscape:connector-curvature="0" fill="#CECFFF" d="M3491.478,2747.01h422.929
		c29.264,0,52.822,23.558,52.822,52.82c0,29.264-23.559,52.821-52.822,52.821h-422.929c-29.263,0-52.821-23.558-52.821-52.821
		C3438.656,2770.567,3462.215,2747.01,3491.478,2747.01z"/>
	<path id="path36279-3-31" inkscape:connector-curvature="0" fill="#CECFFF" d="M3476.322,2319.849
		c-3.876-0.028-6.932,0.485-8.905,1.595c-13.239,7.436-34.964,96.703-13.912,134.185c22.755,40.517,64.635,46.674,97.888,32.532
		c33.915,62.408,84.039,184.089,72.061,342.977c-0.77,9.368,6.201,17.586,15.568,18.356s17.586-6.199,18.355-15.567
		c0.006-0.078,0.013-0.154,0.018-0.232c5.781-76.691-2.337-145.391-16.305-203.732c18.76,8.903,43.198,6.028,56.277-17.258
		c11.703-20.841-0.374-70.474-7.736-74.607c-8.495-4.771-52.995,10.343-66.48,30.203c-14.134-41.088-30.146-74.597-43.643-99.225
		c20.98-21.482,29.693-54.139,9.732-89.681C3570.819,2346.598,3503.455,2320.035,3476.322,2319.849L3476.322,2319.849z"/>
	<path id="path27576" sodipodi:nodetypes="ssssscssss" inkscape:connector-curvature="0" fill="#CECFFF" d="M3219.635,709.533
		h472.926c24.352,0,43.955,19.606,43.955,43.957v323.041c0,24.351-19.604,43.958-43.955,43.958h-401.031l-71.895,73.658
		c-17.01,17.428-43.957,7.243-43.957-17.11V753.49C3175.678,729.139,3195.283,709.533,3219.635,709.533L3219.635,709.533z"/>
	<path id="path27578" sodipodi:nodetypes="ccccc" inkscape:connector-curvature="0" fill="#FFFFFF" d="M3249.283,807.334
		l0.443,46.769h389.719l-0.442-46.769H3249.283z"/>
	<path id="path27580" sodipodi:nodetypes="ccccc" inkscape:connector-curvature="0" fill="#FFFFFF" d="M3398.305,954.589
		l0.23,46.769h240.91l-0.232-46.769H3398.305z"/>
	<path id="path27582" sodipodi:nodetypes="ccccc" inkscape:connector-curvature="0" fill="#FFFFFF" d="M3249.283,807.334
		l0.058,46.769h74.375l-0.058-46.769H3249.283z"/>
	<path id="path27584" sodipodi:nodetypes="ccccc" inkscape:connector-curvature="0" fill="#FFFFFF" d="M3253.639,954.589
		l0.059,46.769h74.375l-0.058-46.769H3253.639z"/>
</g>
</svg>
