<?xml version="1.0" encoding="utf-8"?>
<!-- Generator: Adobe Illustrator 16.0.0, SVG Export Plug-In . SVG Version: 6.00 Build 0)  -->
<!DOCTYPE svg PUBLIC "-//W3C//DTD SVG 1.1//EN" "http://www.w3.org/Graphics/SVG/1.1/DTD/svg11.dtd">
<svg version="1.1"
	 id="svg8" xmlns:rdf="http://www.w3.org/1999/02/22-rdf-syntax-ns#" xmlns:dc="http://purl.org/dc/elements/1.1/" xmlns:sodipodi="http://sodipodi.sourceforge.net/DTD/sodipodi-0.dtd" xmlns:svg="http://www.w3.org/2000/svg" xmlns:cc="http://creativecommons.org/ns#" xmlns:inkscape="http://www.inkscape.org/namespaces/inkscape" inkscape:version="0.92.3 (2405546, 2018-03-11)" sodipodi:docname="gift.svg"
	 xmlns="http://www.w3.org/2000/svg" xmlns:xlink="http://www.w3.org/1999/xlink" x="0px" y="0px" width="4500px" height="3500px"
	 viewBox="0 0 4500 3500" enable-background="new 0 0 4500 3500" xml:space="preserve">
<defs>
	
	
		<inkscape:perspective  inkscape:vp_y="0 : 1000 : 0" sodipodi:type="inkscape:persp3d" inkscape:vp_x="0 : 463.02085 : 1" inkscape:vp_z="1190.625 : 463.02085 : 1" id="perspective11035" inkscape:persp3d-origin="595.3125 : 308.68056 : 1">
		</inkscape:perspective>
</defs>
<sodipodi:namedview  units="px" showguides="true" showgrid="false" inkscape:cy="524.99721" inkscape:cx="1543.0099" inkscape:zoom="0.079999996" pagecolor="#ffffff" borderopacity="1.0" bordercolor="#666666" id="base" inkscape:current-layer="layer2" inkscape:window-width="1920" inkscape:window-height="1001" inkscape:window-x="-9" inkscape:window-y="-9" inkscape:window-maximized="1" inkscape:guide-bbox="true" inkscape:pageopacity="0.0" inkscape:pageshadow="2" inkscape:document-units="mm" inkscape:lockguides="false">
	<sodipodi:guide  inkscape:locked="false" orientation="3300,0" position="26.458313,899.58337" id="guide825"></sodipodi:guide>
	<sodipodi:guide  inkscape:locked="false" orientation="0,4300.0004" position="684.196,26.458361" id="guide827"></sodipodi:guide>
	<sodipodi:guide  inkscape:locked="false" orientation="0,-4300.0004" position="362.48432,899.58337" id="guide831">
		</sodipodi:guide>
	<sodipodi:guide  inkscape:locked="false" orientation="1,0" position="1157.8001,124.85027" id="guide21309"></sodipodi:guide>
</sodipodi:namedview>
<g id="layer2" inkscape:label="Layer 2" inkscape:groupmode="layer">
	<path id="path20057-52" inkscape:connector-curvature="0" fill="#F2F4FF" d="M2352.91,408.066
		c284.494-0.829,635.183,80.275,864.477,353.492c107.596,128.202,161.482,248.655,184.171,359.983
		c131.101,110.679,206.908,273.931,207.136,446.068c-0.199,106.456-29.358,210.827-84.318,301.811
		c224.403,86.432,372.597,303.036,372.657,544.688c-0.273,162.628-68.032,317.761-186.938,427.987
		c-3.735,6.115-6.012,9.479-6.012,9.479l283.637,248.854H488.127c0,0,141.168-38.483,264.428-104.227
		c-76.099-67.655-119.749-164.841-119.917-266.986c0.164-147.26,90.186-279.322,226.71-332.58
		c-115.204-112.971-180.182-267.924-180.204-429.738c0.559-212.809,113.107-409.417,295.826-516.771
		c-35.531-73.834-54.101-154.755-54.337-236.781c0-302.201,243.612-547.184,544.123-547.184c0,0,0,0,0.001,0
		c67.51,0.003,134.429,12.639,197.342,37.264c75.751-93.151,167.025-155.247,253.048-209.735
		C1983.881,450.154,2151.868,408.654,2352.91,408.066L2352.91,408.066z"/>
	<path id="path20059-1" inkscape:connector-curvature="0" fill="#E7EAFF" d="M834.804,1971.524
		c153.532,0.377,287.97,32.473,364.868,121.056c273.412,314.964,223.23,467.682,558.074,491.063
		c334.845,23.386,557.771-57.269,681.164,229.759c102.883,239.314,443.273,137.68,615.598,287.025H488.127
		c0,0,141.168-38.484,264.428-104.227c-76.099-67.656-119.749-164.841-119.917-266.986c0.164-147.26,90.186-279.322,226.71-332.58
		c-111.678-109.779-176.133-259.194-179.543-416.205C732.613,1974.664,784.725,1971.399,834.804,1971.524L834.804,1971.524z"/>
	<path id="path913-0-5" sodipodi:nodetypes="cccccc" inkscape:connector-curvature="0" fill="#F6C6C0" d="M2927.518,3015.065
		l8.184-66.624h-79.826h-19.015l-1.653,93.877L2927.518,3015.065z"/>
	<path id="path6339" sodipodi:nodetypes="cscccccccccscc" inkscape:connector-curvature="0" fill="#6584F7" d="M2988.098,839.355
		c56.875-0.388,106.093,2.74,145.588,2.098c95.248-1.547,126.144,5.573,207.976,81.998c207.769,200.286,243.8,629.748,66.89,582.344
		l-3.938,214.066h-372.27c-47.01-156.247-78.914-257.506-186.615-378.698l-80.982,132.074
		c-85.164,106.815-244.816,139.687-321.01,176.378l-71.627-125.416c0,0,202.744-87.132,240.723-146.813
		c20.045-43.733,30.504-84.473,37.334-122.709c20.466-114.577,8.34-206.685,123.932-289.55
		C2865.539,899.944,2988.098,839.355,2988.098,839.355L2988.098,839.355z"/>
	<path id="path883-9" sodipodi:nodetypes="ccc" inkscape:connector-curvature="0" fill="#F69CB3" d="M2739.846,674.333
		l-22.226,61.954C2632.231,729.788,2665.172,535.508,2739.846,674.333L2739.846,674.333z"/>
	<path id="path876-7-88" sodipodi:nodetypes="cccc" inkscape:connector-curvature="0" fill="#3D3D3D" d="M2698.342,538.602
		c0,0-27.781,6.947-42.053,33.896c-14.273,26.949,38.373,110.787,38.373,110.787L2698.342,538.602z"/>
	<path id="path874-7-7" sodipodi:nodetypes="cccccsssc" inkscape:connector-curvature="0" fill="#3D3D3D" d="M2932.933,513.661
		c0,0,39.244-3.531,51.407,45.276c12.164,48.807-27.924,143.947-27.924,143.947c9.615,66.635-11.016,120.818-71.473,60.575
		c-27.436-29.394-48.678-195.983-48.678-195.983s-105.367,20.02-150.267-11.834s-94.974-129.895-35.096-150.869
		c59.877-20.975,75.12,21.642,205.235,11.667C2924.092,411.23,2954.109,466.054,2932.933,513.661L2932.933,513.661z"/>
	<path id="path885-8" sodipodi:nodetypes="cccccc" inkscape:connector-curvature="0" fill="#F6C6C0" d="M2929.289,707.503
		l45.197,113.873l-73.569,157.001l-38.146-41.696l-15.281-85.881L2929.289,707.503z"/>
	<path id="path887-3-8" inkscape:connector-curvature="0" fill="#F69CB3" d="M2929.289,707.504l-81.799,143.295l12.744,71.622
		c13.877-2.658,26.797-8.987,34.936-21.812c25.801-40.66,15.766-125.455,15.766-125.455L2929.289,707.504z"/>
	<path id="path870-4-1" sodipodi:nodetypes="ccccc" inkscape:connector-curvature="0" fill="#F6C6C0" d="M2936.826,729.248
		c84.797-11.963,39.459-203.73-26.155-60.4c-19.86-30.903-60.788-75.795-41.337-137.289
		c-62.706,22.678-114.76,40.349-183.335,24.083C2668.433,852.592,2822.791,1027.828,2936.826,729.248z"/>
	<path id="path894-3-4" sodipodi:nodetypes="cccscc" inkscape:connector-curvature="0" fill="#F69CB3" d="M2931.76,689.295
		c-0.426-1.5,3.406-23.573,15.396-39.096c11.991-15.522,23.159,2.284,23.159,2.284s-11.451-3.038-17.539,7.753
		c-6.086,10.792,15.887,23.332-3.736,36.829C2929.415,710.563,2931.76,689.295,2931.76,689.295z"/>
	<path id="path881-1-2" sodipodi:nodetypes="cccccc" inkscape:connector-curvature="0" fill="#FFFFFF" d="M2900.916,978.376
		l73.57-157.001l-12.379-30.735c35.35,13.756,54.172,31.378,53.831,50.301l-32.97,165.319L2900.916,978.376z"/>
	<path id="path884-3-21" sodipodi:nodetypes="cccccc" inkscape:connector-curvature="0" fill="#FFFFFF" d="M2862.771,936.68
		l-8.545-48.737c-29.588,15.264-56.937,42.238-42.523,69.538c4.45,8.028,45.741,102.571,45.741,102.571l43.472-81.675
		L2862.771,936.68z"/>
	<path id="path17531-2" sodipodi:nodetypes="ccccccccccccccccccc" inkscape:connector-curvature="0" fill="#FF6853" d="
		M3032.862,1747.355l-167.579,487.576c-25.64,69.559-35.141,127.944-34.652,200.478l1.877,279.193l4.353,233.839h98.841
		l24.551-233.839l58.428-341.265l174.629-292.199l47.288,270.705c7.028,40.994,14.142,65.324,25.396,98.802l89.94,267.574
		l72.231,230.222h90.657l-37.485-233.839l-55.851-341.254l-8.497-352.117l-5.973-247.391L3032.862,1747.355z"/>
	<path id="path935-5-2" inkscape:connector-curvature="0" fill="#E0523C" d="M2960.252,2714.603h-127.744l4.353,233.839h98.841
		L2960.252,2714.603z"/>
	<path id="path13256" sodipodi:nodetypes="sssss" inkscape:connector-curvature="0" fill="#CECFFF" d="M3886.612,2855.108
		c-47.849,53.571-108.245,82.036-134.897,63.58c-26.652-18.457-9.47-76.848,38.381-130.419
		c47.85-53.57,108.245-82.036,134.898-63.579C3951.646,2743.148,3934.463,2801.537,3886.612,2855.108L3886.612,2855.108z"/>
	<path id="path13258" sodipodi:nodetypes="sssss" inkscape:connector-curvature="0" fill="#CECFFF" d="M3872.145,2752.023
		c-47.85,53.571-108.246,82.037-134.898,63.579c-26.652-18.456-9.469-76.847,38.381-130.417
		c47.85-53.571,108.244-82.037,134.898-63.58C3937.178,2640.063,3919.994,2698.453,3872.145,2752.023L3872.145,2752.023z"/>
	<path id="path13254" sodipodi:nodetypes="sssss" inkscape:connector-curvature="0" fill="#B7BBFF" d="M3542.328,2855.108
		c47.851,53.571,108.246,82.036,134.898,63.58c26.652-18.457,9.471-76.848-38.379-130.419
		c-47.851-53.57-108.246-82.036-134.898-63.579C3477.296,2743.148,3494.479,2801.537,3542.328,2855.108L3542.328,2855.108z"/>
	<path id="path13252" sodipodi:nodetypes="sssss" inkscape:connector-curvature="0" fill="#B7BBFF" d="M3556.797,2752.023
		c47.85,53.571,108.246,82.037,134.898,63.579c26.652-18.456,9.469-76.847-38.381-130.417
		c-47.85-53.571-108.246-82.037-134.898-63.58S3508.947,2698.453,3556.797,2752.023L3556.797,2752.023z"/>
	<path id="path13199" sodipodi:nodetypes="cccsccc" inkscape:connector-curvature="0" fill="#A5A3FF" d="M3682.188,2364.472
		c-14.637-0.8-26.337,12.005-24.226,26.51c0,0,38.206,293.247,29.658,501.737c-0.788,12.969,9.227,24.057,22.209,24.59
		c12.981,0.531,23.871-9.7,24.147-22.689c8.848-215.843-30.008-509.676-30.008-509.676
		C3702.656,2373.728,3693.461,2365.086,3682.188,2364.472L3682.188,2364.472z"/>
	<path id="path13203" sodipodi:nodetypes="sssss" inkscape:connector-curvature="0" fill="#A5A3FF" d="M3723.008,2282.385
		c5.895,58.473-15.716,104.58-48.269,102.984c-32.554-1.597-63.72-50.292-69.614-108.764
		c-5.895-58.473,15.717-104.58,48.269-102.984C3685.946,2175.217,3717.113,2223.912,3723.008,2282.385z"/>
	<path id="path13211" sodipodi:nodetypes="sssss" inkscape:connector-curvature="0" fill="#A5A3FF" d="M3773.62,2341.043
		c-36,54.371-86.547,87.824-112.899,74.719c-26.353-13.104-18.533-67.805,17.467-122.176s86.547-87.824,112.899-74.72
		S3809.619,2286.671,3773.62,2341.043z"/>
	<path id="path13213" sodipodi:nodetypes="sssss" inkscape:connector-curvature="0" fill="#A5A3FF" d="M3570.907,2358.715
		c43.141,46.029,97.81,70.672,122.108,55.039c24.299-15.632,9.024-65.618-34.114-111.647c-43.14-46.03-97.812-70.672-122.108-55.039
		C3512.493,2262.699,3527.768,2312.686,3570.907,2358.715L3570.907,2358.715z"/>
	<path id="path13197" sodipodi:nodetypes="sssss" inkscape:connector-curvature="0" fill="#A5A3FF" d="M3555.363,2562.865
		c58.441,41.762,123.613,56.276,145.563,32.42c21.952-23.858-7.63-77.052-66.071-118.814
		c-58.441-41.762-123.612-56.275-145.563-32.418C3467.34,2467.909,3496.922,2521.104,3555.363,2562.865L3555.363,2562.865z"/>
	<path id="path13238" sodipodi:nodetypes="sssss" inkscape:connector-curvature="0" fill="#A5A3FF" d="M3828.086,2673.051
		c-36.258,62.006-89.798,101.898-119.586,89.103c-29.786-12.797-24.541-73.437,11.718-135.442
		c36.259-62.007,89.798-101.899,119.585-89.103C3869.59,2550.404,3864.344,2611.045,3828.086,2673.051L3828.086,2673.051z"/>
	<path id="path13205" sodipodi:nodetypes="ccssscc" inkscape:connector-curvature="0" fill="#CECFFF" d="M3492.397,2871.482
		l28.991,176.097c4.025,29.468,23.943,53.684,53.684,53.684h238.518c29.74,0,49.123-24.294,53.684-53.684l27.329-176.097H3492.397z"
		/>
	<path id="path13207" sodipodi:nodetypes="ccccc" inkscape:connector-curvature="0" fill="#B7BBFF" d="M3492.397,2871.482
		l6.622,40.228h389.34l6.244-40.228H3492.397z"/>
	<path id="path13209" sodipodi:nodetypes="sssssss" inkscape:connector-curvature="0" fill="#CECFFF" d="M3479.281,2769.994h429.831
		c29.74,0,53.683,23.942,53.683,53.684c0,29.74-23.942,53.684-53.683,53.684h-429.831c-29.74,0-53.682-23.943-53.682-53.684
		C3425.6,2793.937,3449.541,2769.994,3479.281,2769.994z"/>
	<path id="path933-4" sodipodi:nodetypes="ccccc" inkscape:connector-curvature="0" fill="#E0523C" d="M3481.336,2714.603
		l-125.403,3.616l72.231,230.223h90.657L3481.336,2714.603z"/>
	<path id="path925-0-89" sodipodi:nodetypes="ccccc" inkscape:connector-curvature="0" fill="#E0523C" d="M3193.309,2081.139
		l-36.603-155.138h-37.278l8.978,263.114L3193.309,2081.139z"/>
	<path id="path927-1" sodipodi:nodetypes="ccccc" inkscape:connector-curvature="0" fill="#FFFFFF" d="M3032.344,1719.862
		l0.031,27.459l378.641,26.519l-6.402-53.978H3032.344z"/>
	<path id="path915-1-7" sodipodi:nodetypes="ccccc" inkscape:connector-curvature="0" fill="#FFFFFF" d="M2836.86,2977.997
		l95.659,1.11l-5.002,35.958c0,0-91.857-5.988-92.064-7.021C2835.246,3007.01,2836.86,2977.997,2836.86,2977.997L2836.86,2977.997z"
		/>
	<path id="path929-1-3" sodipodi:nodetypes="ccccccc" inkscape:connector-curvature="0" fill="#3D3D3D" d="M2676.614,3100.438
		h260.423l-9.52-85.372l-31.018-8.484c-21.115-20.385-59.766-25.384-86.143,4.657c0,0-48.277,34.736-71.827,35.325
		C2690.818,3046.563,2672.984,3055.694,2676.614,3100.438L2676.614,3100.438z"/>
	<path id="path924-5-2" sodipodi:nodetypes="cccccc" inkscape:connector-curvature="0" fill="#F6C6C0" d="M3446.826,3020.943
		l-18.662-72.502h71.643h19.015l12.176,93.877L3446.826,3020.943z"/>
	<path id="path926-4-32" sodipodi:nodetypes="ccccc" inkscape:connector-curvature="0" fill="#FFFFFF" d="M3522.937,2977.997
		l-86.331,2.919l10.221,40.027c0,0,83.717-11.866,83.924-12.9C3530.957,3007.01,3522.937,2977.997,3522.937,2977.997
		L3522.937,2977.997z"/>
	<path id="path928-3-77" sodipodi:nodetypes="cccccc" inkscape:connector-curvature="0" fill="#3D3D3D" d="M3598.961,3100.438
		c27.895,0-105.075,0-153.775,0l1.641-79.494l22.879-14.362c21.115-20.385,53.232-28.584,70.943,1.442
		C3563.615,3067.501,3602.676,3042.84,3598.961,3100.438L3598.961,3100.438z"/>
	<path id="path6359" sodipodi:nodetypes="cccc" inkscape:connector-curvature="0" fill="#3362C4" d="M2845.729,1341.164
		l-58.232-65.306l-22.75,197.38L2845.729,1341.164z"/>
	<path id="path6361" sodipodi:nodetypes="scccccccccs" inkscape:connector-curvature="0" fill="#F6CDC1" d="M2231.026,1556.833
		c-9.912-0.051-18.818,0.747-25.004,2.953c-24.749,8.824-1.572,52.372-1.572,52.372s-36.296,17.917-48.961,24.713
		c-8.968,7.783-16.3,20.343-11.402,39.936c13.23,53.412,102.91,90.605,156.536,65.986c16.379-8.906,85.088-89.347,85.088-89.347
		l2.447-1.688l-43.064-81.297c-10.904,0.304-23.603-2.69-43.78-5.459C2299.576,1564.764,2260.765,1556.984,2231.026,1556.833z"/>
	<path id="path6363" sodipodi:nodetypes="ccccc" inkscape:connector-curvature="0" fill="#FFFFFF" d="M2399.475,1673.119
		l-63.678-120.211l36.313-28.708l71.627,125.416L2399.475,1673.119z"/>
	<path id="path6365" sodipodi:nodetypes="ccccc" inkscape:connector-curvature="0" fill="#F69CB3" d="M2385.711,1653.446
		l-86.467-88.851l45.85,5.866l43.064,81.297L2385.711,1653.446z"/>
	<path id="path6370" inkscape:connector-curvature="0" fill="#F6CDC1" d="M2210.635,1611.654c-3.83-0.048-6.186,0.504-6.186,0.504
		l-48.961,24.713c-8.968,7.783-16.3,20.343-11.402,39.936c13.23,53.412,102.91,90.605,156.536,65.986
		c29.934-46.548-26.737-62.15-46.559-99.875C2239.817,1615.803,2220.419,1611.775,2210.635,1611.654L2210.635,1611.654z"/>
	<path id="rect10483" sodipodi:nodetypes="sssssssss" inkscape:connector-curvature="0" fill="#B7BBFF" d="M1740.833,1681.217
		h1088.88c137.375,0,247.97,110.595,247.97,247.971v923.27c0,137.376-110.595,247.971-247.97,247.971h-1088.88
		c-137.375,0-247.97-110.595-247.97-247.971v-923.27C1492.863,1791.812,1603.458,1681.217,1740.833,1681.217z"/>
	<path id="path10494" sodipodi:nodetypes="cscccsccc" inkscape:connector-curvature="0" fill="#B7BBFF" d="M1967.293,1383.214
		c-196.433,0-355.674,129.395-355.674,289.011c0,159.616,159.241,289.011,355.674,289.011
		c122.02-0.137,235.436-51.089,300.464-134.984c65.029,83.896,178.445,134.848,300.465,134.984
		c196.434,0,355.674-129.395,355.674-289.011c0-159.617-159.24-289.011-355.674-289.011
		c-121.908,0.037-235.3,91.726-300.465,175.445C2202.593,1474.94,2089.202,1383.251,1967.293,1383.214L1967.293,1383.214z"/>
	<path id="rect10485" sodipodi:nodetypes="sssssssss" inkscape:connector-curvature="0" fill="#E3E1FF" d="M1410.681,1634.497
		h1749.185c66.529,0,120.088,53.56,120.088,120.089v106.542c0,66.529-53.559,120.089-120.088,120.089H1410.681
		c-66.529,0-120.089-53.56-120.089-120.089v-106.542C1290.592,1688.057,1344.152,1634.497,1410.681,1634.497z"/>
	<path id="path10499" inkscape:connector-curvature="0" fill="#A5A3FF" d="M1492.863,2320.289v209.789h1584.819v-209.789H1492.863z"
		/>
	<path id="rect10489" sodipodi:nodetypes="ccccc" inkscape:connector-curvature="0" fill="#F2F4FF" d="M2180.378,1634.196v1466.232
		h209.79V1634.196H2180.378z"/>
	<path id="path12232" sodipodi:nodetypes="cccccccccc" inkscape:connector-curvature="0" fill="#F6CDC1" d="M714.188,522.205
		c22.691,10.874,83.563,67.165,83.563,67.165c1.796-0.553,26.227-20.171,36.574-6.145c0.855,26.645,4.247,52.155,11.461,76.847
		c79.005,58.181,232.093,182.664,313.739,252.36c-26.492,42.007-89.693,52.966-123.178,32.821
		c-98.217-60.628-159.021-150.367-235.09-240.613c-111.891-14.342-122.203-74.802-99.423-125.647
		c-7.309-15.238-14.104-38.129-2.741-54.099C703.673,519.611,708.727,519.608,714.188,522.205L714.188,522.205z"/>
	<path id="path10228-7-1" sodipodi:nodetypes="cccsccc" inkscape:connector-curvature="0" fill="#CECFFF" d="M626.471,2515.757
		c-13.378,5.989-17.919,22.729-9.402,34.659c0,0,168.207,243.229,256.048,432.502c5.236,11.894,19.217,17.168,31.002,11.698
		c11.788-5.47,16.785-19.552,11.082-31.229c-90.94-195.95-259.993-439.401-259.993-439.401
		C648.908,2514.616,636.776,2511.143,626.471,2515.757L626.471,2515.757z"/>
	<path id="path13162" sodipodi:nodetypes="sssss" inkscape:connector-curvature="0" fill="#CECFFF" d="M661.721,2481.779
		c56.859,73.418,77.645,147.379,46.425,165.196s-102.622-27.255-159.481-100.673c-56.86-73.418-77.645-147.379-46.425-165.195
		C533.459,2363.289,604.862,2408.362,661.721,2481.779z"/>
	<path id="path13164" sodipodi:nodetypes="sssss" inkscape:connector-curvature="0" fill="#CECFFF" d="M807.304,2573.599
		c0.298,71.828-25.527,133.399-57.684,137.522c-32.156,4.123-58.466-50.763-58.764-122.592
		c-0.299-71.828,25.526-133.398,57.682-137.522C780.694,2446.884,807.004,2501.77,807.304,2573.599z"/>
	<path id="path13166" sodipodi:nodetypes="sssss" inkscape:connector-curvature="0" fill="#CECFFF" d="M623.333,2715.195
		c69.435,18.39,135.527,8.912,147.621-21.166c12.093-30.08-34.392-69.372-103.827-87.762
		c-69.436-18.389-135.527-8.911-147.621,21.168S553.897,2696.807,623.333,2715.195z"/>
	<path id="path10232-2-7" sodipodi:nodetypes="cccsccc" inkscape:connector-curvature="0" fill="#A5A3FF" d="M835.392,2248.727
		c-14.636-0.799-26.336,12.006-24.225,26.51c0,0,38.205,293.248,29.658,501.736c-0.788,12.97,9.227,24.059,22.209,24.591
		c12.982,0.532,23.871-9.699,24.147-22.689c8.848-215.843-30.008-509.677-30.008-509.677
		C855.861,2257.983,846.667,2249.341,835.392,2248.727z"/>
	<path id="path10224-0-3" sodipodi:nodetypes="cccsccc" inkscape:connector-curvature="0" fill="#B7BBFF" d="M971.031,2643.92
		c14.636,0.801,24.87,14.805,21.189,28.993c0,0-48.251,155.312-62.49,363.489c-0.629,12.979-11.794,22.91-24.757,22.024
		c-12.965-0.888-22.673-12.247-21.53-25.189c14.741-215.521,63.703-371.345,63.703-371.345
		C949.674,2650.889,959.757,2643.301,971.031,2643.92L971.031,2643.92z"/>
	<path id="circle10222-9-3" sodipodi:nodetypes="sssss" inkscape:connector-curvature="0" fill="#A5A3FF" d="M920.719,2153.283
		c10.68,152.374-28.477,272.526-87.458,268.368c-58.982-4.16-115.455-131.054-126.135-283.429
		c-10.681-152.374,28.476-272.526,87.458-268.367C853.565,1874.015,910.038,2000.91,920.719,2153.283L920.719,2153.283z"/>
	<path id="path7278-8-3-2-0" sodipodi:nodetypes="ccssscc" inkscape:connector-curvature="0" fill="#CECFFF" d="M658.263,2871.482
		l28.991,176.097c4.024,29.468,23.943,53.684,53.683,53.684h238.519c29.74,0,49.122-24.294,53.683-53.684l27.33-176.097H658.263z"/>
	<path id="path7282-1-9-8-5" sodipodi:nodetypes="ccccc" inkscape:connector-curvature="0" fill="#B7BBFF" d="M658.263,2871.482
		l6.622,40.228h389.339l6.244-40.228H658.263z"/>
	<path id="path7286-5-1-2-7" sodipodi:nodetypes="sssssss" inkscape:connector-curvature="0" fill="#CECFFF" d="M645.147,2769.994
		h429.83c29.74,0,53.683,23.942,53.683,53.684c0,29.74-23.943,53.684-53.683,53.684h-429.83c-29.74,0-53.683-23.943-53.683-53.684
		C591.464,2793.937,615.407,2769.994,645.147,2769.994z"/>
	<path id="path13158" sodipodi:nodetypes="sssss" inkscape:connector-curvature="0" fill="#A5A3FF" d="M1035.933,2411.899
		c-65.228,98.516-156.814,159.13-204.563,135.384c-47.749-23.744-33.58-122.855,31.648-221.372
		c65.228-98.515,156.814-159.128,204.563-135.384C1115.331,2214.271,1101.161,2313.384,1035.933,2411.899L1035.933,2411.899z"/>
	<path id="path13160" sodipodi:nodetypes="sssss" inkscape:connector-curvature="0" fill="#A5A3FF" d="M654.918,2437.455
		c78.166,88.602,177.222,136.034,221.249,105.944c44.026-30.091,16.351-126.309-61.814-214.91
		c-78.166-88.601-177.222-136.034-221.249-105.944C549.078,2252.636,576.753,2348.855,654.918,2437.455L654.918,2437.455z"/>
	<path id="path13168" sodipodi:nodetypes="sssss" inkscape:connector-curvature="0" fill="#B7BBFF" d="M1106.921,2479.813
		c-35.152,85.95-88.811,140.932-119.852,122.804c-31.04-18.13-27.707-102.502,7.445-188.453
		c35.151-85.95,88.811-140.93,119.851-122.803C1145.406,2309.49,1142.072,2393.863,1106.921,2479.813z"/>
	<path id="path13170" sodipodi:nodetypes="sssss" inkscape:connector-curvature="0" fill="#B7BBFF" d="M1100.194,2651.8
		c-62.056,36.173-128.291,44.594-147.939,18.807c-19.649-25.786,14.729-76.014,76.785-112.187
		c62.056-36.174,128.291-44.594,147.94-18.807C1196.628,2565.398,1162.25,2615.627,1100.194,2651.8L1100.194,2651.8z"/>
	<path id="path13172" sodipodi:nodetypes="sssss" inkscape:connector-curvature="0" fill="#B7BBFF" d="M885.582,2563.276
		c18.793,69.327,60.045,121.825,92.142,117.259c32.096-4.567,42.881-64.47,24.089-133.797
		c-18.792-69.328-60.046-121.826-92.142-117.26C877.575,2434.045,866.79,2493.948,885.582,2563.276L885.582,2563.276z"/>
	<path id="path35658-8-6" sodipodi:nodetypes="ccccccccc" inkscape:connector-curvature="0" fill="#6584F7" d="M1365.324,2169.756
		l95.634-356.912l-318.357,65.343c-113.447,93.509,0.875,296.355,10.701,324.395l-45.262,512.021l-25.73,233.839h90.655
		l57.765-233.839L1365.324,2169.756z"/>
	<path id="path35662-3-4" sodipodi:nodetypes="ccccc" inkscape:connector-curvature="0" fill="#3362C4" d="M1108.041,2714.603
		h122.69l-57.765,233.839h-90.656L1108.041,2714.603z"/>
	<path id="path35672-8-3" sodipodi:nodetypes="cccccc" inkscape:connector-curvature="0" fill="#F6C6C0" d="M1162.446,3015.065
		l10.524-66.624h-71.645h-19.015l-12.175,93.877L1162.446,3015.065z"/>
	<path id="path35674-8-44" sodipodi:nodetypes="ccccc" inkscape:connector-curvature="0" fill="#FFFFFF" d="M1078.197,2977.997
		l89.946,1.11l-5.698,35.958c0,0-91.855-5.988-92.063-7.022C1070.167,3007.01,1078.197,2977.997,1078.197,2977.997
		L1078.197,2977.997z"/>
	<path id="path35676-3-1" sodipodi:nodetypes="cccccc" inkscape:connector-curvature="0" fill="#3D3D3D" d="M1009.844,3100.438
		h156.333l-3.731-85.372l-31.019-8.484c-21.116-20.385-53.229-28.584-70.942,1.442
		C1037.517,3067.501,1006.129,3042.84,1009.844,3100.438z"/>
	<path id="path17620-0-6" sodipodi:nodetypes="cccccccc" inkscape:connector-curvature="0" fill="#3D3D3D" d="M1345.032,712.853
		c-55.233,326.797-183.633,345.82-253.056,489.878c-69.641,145.341,87.384,359.136,207.878,334.244
		c120.494-24.898,154.552-81.953,154.552-81.953l-6.576,43.964c86.994,16.728,493.283-245.296,294.593-419.338
		c-76.051-72.124-44.067-325.27-44.067-325.27S1407.23,637.583,1345.032,712.853L1345.032,712.853z"/>
	<path id="path25780-5" sodipodi:nodetypes="cccccccccc" inkscape:connector-curvature="0" fill="#F6CDC1" d="M2414.731,686.292
		c-24.13,7.133-93.164,53.049-93.164,53.049c-1.685-0.832-22.692-24.079-35.136-11.872c-5.073,26.17-12.471,50.82-23.514,74.054
		c-87.239,44.902-258.145,143.507-349.818,199.36c19.488,45.68,80.148,66.532,116.405,51.957
		c106.595-44.269,180.874-123.219,270.303-200.246c112.748,3.6,132.525-54.456,118.105-108.274
		c9.634-13.884,19.977-35.406,11.293-52.977C2425.525,685.399,2420.537,684.594,2414.731,686.292z"/>
	<path id="path6068-2" sodipodi:nodetypes="cccsscc" inkscape:connector-curvature="0" fill="#FF6853" d="M1656.601,1091.088
		l285.447-104.894l66.262,102.911c0,0-200.016,181.487-305.055,272.542c-18.639,16.156,0.773,30.407-5.355,54.449
		c-38.958,152.831-72.34-97.66-81.383-101.275C1607.473,1311.201,1656.601,1091.088,1656.601,1091.088L1656.601,1091.088z"/>
	<path id="path6070-4" sodipodi:nodetypes="ccccccccc" inkscape:connector-curvature="0" fill="#E0523C" d="M1634.197,1206.991
		c0,0,83.253,8.078,139.515,93.318c-23.963,23.173-49.112,42.833-70.459,61.338c-18.639,16.156,0.773,30.407-5.355,54.449
		c-3.842,15.073-7.629,26.209-11.345,34.061c-15.667-9.117-28.727-16.778-39.614-23.185
		c-14.826-44.018-25.802-110.304-30.423-112.151c-4.209-1.686,4.21-50.322,14.388-101.795
		C1632.845,1209.456,1634.197,1206.991,1634.197,1206.991L1634.197,1206.991z"/>
	<path id="path17622-9-91" sodipodi:nodetypes="ccccccccccc" inkscape:connector-curvature="0" fill="#FF6853" d="
		M1520.907,1036.895c-25.521-0.152-44.007,2.559-44.007,2.559c-51.566-11.56-89.777-23.289-145.24-45.684l-90.222,442.709
		l-88.815,387.729h368.649l144.066-276.385c96.559-18.064,84.454-131.132,67.179-183.957
		c-27.127-92.233-75.915-272.779-75.915-272.779c-23.695-39.174-75.215-50.945-117.042-53.564
		C1533.06,1037.111,1526.796,1036.926,1520.907,1036.895L1520.907,1036.895z"/>
	<path id="path17624-3-1" sodipodi:nodetypes="ccc" inkscape:connector-curvature="0" fill="#F69CB3" d="M1686.563,785.19
		l32.344,57.325C1801.98,821.725,1736.784,635.771,1686.563,785.19z"/>
	<path id="path17626-1-7" sodipodi:nodetypes="ccccccc" inkscape:connector-curvature="0" fill="#F6C6C0" d="M1501.647,872.501
		c0,0,0.558,83.433-3.342,119.566c-3.902,36.133-4.442,55.809-4.442,55.809l83.214,86.328l49.06-40.07l-18.831-94.9
		L1501.647,872.501z"/>
	<path id="path17628-1-0" sodipodi:nodetypes="ccccc" inkscape:connector-curvature="0" fill="#F69CB3" d="M1501.646,872.501
		l116.579,92.27l-3.575,71.573c-26.515,0.415-54.608-49.833-70.902-107.795L1501.646,872.501z"/>
	<path id="path17630-8-4" sodipodi:nodetypes="ccccc" inkscape:connector-curvature="0" fill="#F6C6C0" d="M1501.647,872.501
		c-85.6,2.491-73.212-194.173,15.607-63.941c14.372-33.807,47.152-84.952,17.621-142.292c65.631,11.792,119.917,20.44,184.772-7.143
		C1786.983,948.873,1664.349,1147.605,1501.647,872.501L1501.647,872.501z"/>
	<path id="path17632-4-4" sodipodi:nodetypes="cccscc" inkscape:connector-curvature="0" fill="#F69CB3" d="M1499.912,832.267
		c0.167-1.55-7.328-22.662-21.761-35.944c-14.434-13.28-22.443,6.153-22.443,6.153s10.776-4.925,18.594,4.689
		c7.817,9.611-11.73,25.675,9.887,35.672C1505.806,852.834,1499.912,832.267,1499.912,832.267L1499.912,832.267z"/>
	<path id="path17634-8-7" sodipodi:nodetypes="cccccc" inkscape:connector-curvature="0" fill="#FFFFFF" d="M1577.078,1134.205
		l-82.638-94.318l2.362-30.259c-32.388,19.742-38.563,53.774-34.907,72.343l48.381,119.699L1577.078,1134.205z"/>
	<path id="path17636-4-06" sodipodi:nodetypes="cccccc" inkscape:connector-curvature="0" fill="#FFFFFF" d="M1626.137,1094.135
		l-11.487-57.79c31.806,9.837,58.525,57.072,49.123,86.474c-2.973,8.686-29.577,84.172-29.577,84.172l-57.12-72.786
		L1626.137,1094.135z"/>
	<path id="path17638-3-82" sodipodi:nodetypes="cccscsscscc" inkscape:connector-curvature="0" fill="#3D3D3D" d="M1721.644,673.602
		c-9.278,74.06-118.597,185.868-192.262,164.883l-12.128-29.924c0,0-26.302-41.85-51.924-44.572
		c-25.622-2.722-120.298-51.135-120.298-51.135s13.89-123.909,83.058-187.158c69.168-63.252,195.875-24.954,271.204,7.727
		c43.318,18.795,40.286,70.682,40.286,70.682c23.388,36.9,57.398,65.253,39.471,114.941c-17.928,49.684-41.517,60.994-41.517,60.994
		S1733.566,720.29,1721.644,673.602L1721.644,673.602z"/>
	<path id="path17640-3-1" sodipodi:nodetypes="ccccc" inkscape:connector-curvature="0" fill="#E0523C" d="M1665.336,1547.824
		c-34.842-2.299-93.619-3.552-113.875-83.529c-38.034,33.837-94.753,82.646-180.547,60.013l204.345,200.731L1665.336,1547.824z"/>
	<path id="path17662-3-6" sodipodi:nodetypes="cccccc" inkscape:connector-curvature="0" fill="#F6C6C0" d="M1591.668,3015.067
		l-8.185-66.623h79.827h19.015l1.653,93.876L1591.668,3015.067z"/>
	<path id="path17664-4-4" inkscape:connector-curvature="0" fill="#6584F7" d="M1520.756,1851.701l-300.026,21.013l-1.729,0.122
		l153.224,265.389l143.628,277.316l43.082,299.064l24.552,233.836h98.84l4.351-233.836l-2.718-223.205
		c-0.832-68.365-14.467-131.716-30.976-194.16L1520.756,1851.701z"/>
	<path id="path17666-5-91" inkscape:connector-curvature="0" fill="#3362C4" d="M1558.935,2714.604h127.743l-4.353,233.837h-98.841
		L1558.935,2714.604z"/>
	<path id="path17670-6-51" sodipodi:nodetypes="ccccc" inkscape:connector-curvature="0" fill="#FFFFFF" d="M1521.272,1824.208
		l-0.031,27.46l-378.64,26.519l10.02-53.979H1521.272z"/>
	<path id="path17672-0-8" sodipodi:nodetypes="ccccc" inkscape:connector-curvature="0" fill="#FFFFFF" d="M1682.325,2977.997
		l-95.66,1.111l5.002,35.959c0,0,91.857-5.988,92.063-7.021C1683.938,3007.013,1682.325,2977.997,1682.325,2977.997z"/>
	<path id="path17674-0-9" sodipodi:nodetypes="cccccc" inkscape:connector-curvature="0" fill="#3D3D3D" d="M1803.689,3100.438
		h-221.54l9.52-85.37l31.018-8.484c21.114-20.386,59.765-25.384,86.142,4.659
		C1737.995,3062.646,1803.689,3026.498,1803.689,3100.438z"/>
	<path id="path17688-8-0" sodipodi:nodetypes="ccccc" inkscape:connector-curvature="0" fill="#FFFFFF" d="M2032.093,1057.154
		l-23.783,31.951l-108.625-118.828l76.891-18.612L2032.093,1057.154z"/>
	<path id="path23470-8-38" sodipodi:nodetypes="ccccc" inkscape:connector-curvature="0" fill="#3362C4" d="M1372.225,2138.225
		l31.785-112.289l23.35-0.063l4.973,229.559L1372.225,2138.225z"/>
	<path id="path11806" sodipodi:nodetypes="ccccc" inkscape:connector-curvature="0" fill="#FF6853" d="M1331.659,993.771
		l-188.425-119.148l-91.714,109.802l238.203,354.985L1331.659,993.771z"/>
	<path id="path12234" sodipodi:nodetypes="ccccc" inkscape:connector-curvature="0" fill="#FFFFFF" d="M1033.11,949.103
		l18.41,35.321l126.109-100.08l-72.962-30.581L1033.11,949.103z"/>
	<path id="path6976" inkscape:connector-curvature="0" fill="#CECFFF" d="M532.736,931.371
		c-16.619,8.452-30.281,22.822-37.355,41.483l-7.253,19.134l38.263,14.505l7.254-19.133c7.252-19.13,28.075-28.505,47.205-21.254
		c19.129,7.252,28.504,28.076,21.253,47.206l-0.234,0.616l-6.16,16.88l-0.653,1.716c-11.312,38.363,8.902,80.034,46.875,94.429
		c39.81,15.092,84.882-5.199,99.974-45.009l0.001-0.001l7.252-19.133l0.001-0.002c7.251-19.13,28.075-28.504,47.205-21.252
		c19.125,7.25,28.5,28.064,21.258,47.189c-0.002,0.002,0,0,0,0c-2.41,6.387-4.995,12.703-7.047,19.212
		c-11.313,38.364,8.902,80.036,46.875,94.431c39.811,15.092,84.883-5.2,99.975-45.01l7.253-19.135l-38.262-14.505l-7.254,19.133
		c-7.251,19.13-28.075,28.505-47.205,21.254c-19.129-7.252-28.499-28.074-21.247-47.203l5.785-16.159l1.255-3.058
		c11.311-38.363-8.904-80.035-46.875-94.429c-39.81-15.092-84.88,5.201-99.972,45.01l0,0.001l-7.253,19.132l-0.001,0.002
		c-7.252,19.129-28.075,28.505-47.205,21.253c-19.129-7.252-28.499-28.073-21.247-47.203l6.37-17.543l0.67-1.673
		c11.31-38.364-8.904-80.034-46.875-94.43c-21.149-8.018-43.783-6.048-62.618,3.528L532.736,931.371z"/>
	<path id="path6994" inkscape:connector-curvature="0" fill="#CECFFF" d="M654.604,1458.173l-10.945,39.434l19.715,5.47
		l223.973,62.172l19.715,5.479l10.945-39.434l-19.715-5.47l-223.979-62.176L654.604,1458.173z"/>
	<path id="path7000" sodipodi:nodetypes="ccccccccc" inkscape:connector-curvature="0" fill="#CECFFF" d="M949.976,1638.185v20.107
		v29.004v20.107h40.213v-20.107v-29.004v-20.107H949.976z"/>
	<path id="path7002" sodipodi:nodetypes="ccccccccc" inkscape:connector-curvature="0" fill="#CECFFF" d="M949.976,1768.623v20.107
		v29.004v20.107h40.213v-20.107v-29.004v-20.107H949.976z"/>
	<path id="path7004" sodipodi:nodetypes="ccccccccc" inkscape:connector-curvature="0" fill="#CECFFF" d="M1069.91,1717.907h-20.106
		h-29.005h-20.106v40.213h20.106h29.005h20.106V1717.907z"/>
	<path id="path7006" sodipodi:nodetypes="ccccccccc" inkscape:connector-curvature="0" fill="#CECFFF" d="M939.472,1717.907h-20.106
		H890.36h-20.106v40.213h20.106h29.005h20.106V1717.907z"/>
	<path id="path12711" inkscape:connector-curvature="0" fill="#CECFFF" d="M1060.484,415.343l-33.072,24.105l12.052,16.533
		l136.905,187.847l12.047,16.541l33.071-24.105l-12.051-16.533L1072.53,431.877L1060.484,415.343z"/>
	<path id="path12713" inkscape:connector-curvature="0" fill="#CECFFF" d="M3943.11,931.371
		c16.618,8.452,30.281,22.822,37.355,41.483l7.253,19.134l-38.264,14.505l-7.254-19.133c-7.25-19.13-28.074-28.505-47.203-21.254
		c-19.13,7.252-28.506,28.076-21.254,47.206l0.231,0.616l6.161,16.88l0.652,1.716c11.313,38.363-8.902,80.034-46.874,94.429
		c-39.81,15.092-84.883-5.199-99.974-45.009l-0.002-0.001l-7.252-19.133l-0.002-0.002c-7.251-19.13-28.075-28.504-47.205-21.252
		c-19.125,7.25-28.5,28.064-21.259,47.189c0.003,0.002,0,0,0,0c2.411,6.387,4.996,12.703,7.048,19.212
		c11.313,38.364-8.902,80.036-46.875,94.431c-39.811,15.092-84.883-5.2-99.975-45.01l-7.252-19.135l38.262-14.505l7.253,19.133
		c7.253,19.13,28.075,28.505,47.206,21.254c19.129-7.252,28.498-28.074,21.246-47.203l-5.785-16.159l-1.254-3.058
		c-11.311-38.363,8.903-80.035,46.874-94.429c39.81-15.092,84.88,5.201,99.972,45.01l0.001,0.001l7.253,19.132l0.001,0.002
		c7.252,19.129,28.075,28.505,47.205,21.253c19.13-7.252,28.499-28.073,21.247-47.203l-6.369-17.543l-0.672-1.673
		c-11.309-38.364,8.906-80.034,46.875-94.43c21.149-8.018,43.783-6.048,62.619,3.528L3943.11,931.371z"/>
	<path id="path12715" inkscape:connector-curvature="0" fill="#CECFFF" d="M3821.242,1458.173l10.945,39.434l-19.715,5.47
		l-223.973,62.172l-19.716,5.479l-10.944-39.434l19.714-5.47l223.979-62.176L3821.242,1458.173z"/>
	<path id="path12717" sodipodi:nodetypes="ccccccccc" inkscape:connector-curvature="0" fill="#CECFFF" d="M3907.998,1756.958
		v20.105v29.005v20.106h-40.214v-20.106v-29.005v-20.105H3907.998z"/>
	<path id="path12719" sodipodi:nodetypes="ccccccccc" inkscape:connector-curvature="0" fill="#CECFFF" d="M3907.998,1887.396
		v20.105v29.006v20.105h-40.214v-20.105v-29.006v-20.105H3907.998z"/>
	<path id="path12721" sodipodi:nodetypes="ccccccccc" inkscape:connector-curvature="0" fill="#CECFFF" d="M3788.063,1836.679
		h20.107h29.004h20.107v40.214h-20.107h-29.004h-20.107V1836.679z"/>
	<path id="path12723" sodipodi:nodetypes="ccccccccc" inkscape:connector-curvature="0" fill="#CECFFF" d="M3918.501,1836.679
		h20.106h29.005h20.106v40.214h-20.106h-29.005h-20.106V1836.679z"/>
	<path id="path12725" inkscape:connector-curvature="0" fill="#CECFFF" d="M3415.362,415.343l33.071,24.105l-12.051,16.533
		l-136.906,187.847l-12.047,16.541l-33.072-24.105l12.053-16.533l136.906-187.853L3415.362,415.343z"/>
	<path id="path12727" inkscape:connector-curvature="0" fill="#CECFFF" d="M2309.602,1136.417c30.644,0,58.404,18.542,70.131,46.853
		c11.727,28.31,5.211,61.053-16.457,82.722c-21.668,21.668-54.412,28.184-82.723,16.457c-28.31-11.727-46.853-39.488-46.853-70.13
		v-20.107h40.214v20.107c0,14.494,8.643,27.428,22.033,32.975s28.647,2.516,38.896-7.733c10.249-10.25,13.286-25.506,7.739-38.896
		c-5.547-13.391-18.487-22.034-32.981-22.034h-20.106v-40.213H2309.602z"/>
	<path id="path12729" inkscape:connector-curvature="0" fill="#CECFFF" d="M2033.378,512.358c30.644,0,58.404,18.542,70.131,46.853
		c11.727,28.31,5.211,61.053-16.457,82.722c-21.669,21.668-54.412,28.184-82.723,16.457c-28.31-11.727-46.853-39.488-46.853-70.131
		v-20.106h40.214v20.106c0,14.494,8.643,27.428,22.034,32.976c13.391,5.546,28.647,2.515,38.896-7.733
		c10.249-10.249,13.286-25.505,7.739-38.896c-5.547-13.391-18.487-22.034-32.981-22.034h-20.106v-40.213H2033.378z"/>
	<path id="path12731" sodipodi:nodetypes="ccccccccc" inkscape:connector-curvature="0" fill="#CECFFF" d="M3679.133,598.355v20.106
		v29.005v20.106h-40.213v-20.106v-29.005v-20.106H3679.133z"/>
	<path id="path12733" sodipodi:nodetypes="ccccccccc" inkscape:connector-curvature="0" fill="#CECFFF" d="M3679.133,728.794V748.9
		v29.005v20.106h-40.213v-20.106V748.9v-20.106H3679.133z"/>
	<path id="path12735" sodipodi:nodetypes="ccccccccc" inkscape:connector-curvature="0" fill="#CECFFF" d="M3559.199,678.077h20.106
		h29.004h20.106v40.214h-20.106h-29.004h-20.106V678.077z"/>
	<path id="path12737" sodipodi:nodetypes="ccccccccc" inkscape:connector-curvature="0" fill="#CECFFF" d="M3689.637,678.077h20.107
		h29.004h20.107v40.214h-20.107h-29.004h-20.107V678.077z"/>
	<path id="path912-2" sodipodi:nodetypes="scccccccccs" inkscape:connector-curvature="0" fill="#F6CDC1" d="M3073.101,1092.563
		c-8.241-6.813-28.135-4.336-45.093,6.824c-5.656,3.722-9.604,8.693-12.318,14.185c-21.254-17.531-47.779-39.243-68.469-30.138
		c-33.639,14.803-37.674,24.243-46.629,110.268c5.74,42.473,51.963,77.509,83.891,80.201c16.908,2.748,65.256,17.151,65.256,17.151
		l53.601-74.772c0,0-15.048-21.719-32.577-44.569c-2.09-19.017-3.861-45.065,3.595-60.7
		C3078.535,1102.253,3077.416,1096.134,3073.101,1092.563L3073.101,1092.563z"/>
	<path id="path17431" inkscape:connector-curvature="0" fill="#F69CB3" d="M3070.762,1171.713l-21.023,119.341l53.601-74.772
		L3070.762,1171.713z"/>
	<path id="path897-8" sodipodi:nodetypes="ccccc" inkscape:connector-curvature="0" fill="#FFFFFF" d="M3031.979,1313.617
		l85.866-120.454l34.692,28.853l-79.616,120.501L3031.979,1313.617z"/>
	<path id="path13309" sodipodi:nodetypes="cccc" inkscape:connector-curvature="0" fill="#3362C4" d="M3152.538,1222.016
		l155.366,63.79c0,0-19.558-82.422-38.365-141.948C3254.193,1186.059,3264.443,1215.771,3152.538,1222.016z"/>
	<path id="path13311" inkscape:connector-curvature="0" fill="#3362C4" d="M3408.551,1505.796l-232.364-101.061l228.427,315.127
		L3408.551,1505.796z"/>
</g>
</svg>
