<?xml version="1.0" encoding="utf-8"?>
<!-- Generator: Adobe Illustrator 16.0.0, SVG Export Plug-In . SVG Version: 6.00 Build 0)  -->
<!DOCTYPE svg PUBLIC "-//W3C//DTD SVG 1.1//EN" "http://www.w3.org/Graphics/SVG/1.1/DTD/svg11.dtd">
<svg version="1.1"
	 id="svg8" xmlns:rdf="http://www.w3.org/1999/02/22-rdf-syntax-ns#" xmlns:dc="http://purl.org/dc/elements/1.1/" xmlns:sodipodi="http://sodipodi.sourceforge.net/DTD/sodipodi-0.dtd" xmlns:svg="http://www.w3.org/2000/svg" xmlns:cc="http://creativecommons.org/ns#" xmlns:inkscape="http://www.inkscape.org/namespaces/inkscape" inkscape:version="0.92.3 (2405546, 2018-03-11)" sodipodi:docname="online payment.svg"
	 xmlns="http://www.w3.org/2000/svg" xmlns:xlink="http://www.w3.org/1999/xlink" x="0px" y="0px" width="4500px" height="3500px"
	 viewBox="0 0 4500 3500" enable-background="new 0 0 4500 3500" xml:space="preserve">
<defs>
	
	
		<inkscape:perspective  inkscape:vp_y="0 : 1000 : 0" sodipodi:type="inkscape:persp3d" inkscape:vp_x="0 : 463.02085 : 1" inkscape:vp_z="1190.625 : 463.02085 : 1" id="perspective11035" inkscape:persp3d-origin="595.3125 : 308.68056 : 1">
		</inkscape:perspective>
</defs>
<sodipodi:namedview  units="px" showguides="true" showgrid="false" inkscape:cy="2128.087" inkscape:cx="597.5741" inkscape:zoom="0.05656854" pagecolor="#ffffff" borderopacity="1.0" bordercolor="#666666" id="base" inkscape:current-layer="layer2" inkscape:window-width="1920" inkscape:window-height="1001" inkscape:window-x="-9" inkscape:window-y="-9" inkscape:window-maximized="1" inkscape:guide-bbox="true" inkscape:pageopacity="0.0" inkscape:pageshadow="2" inkscape:document-units="mm" inkscape:lockguides="false">
	<sodipodi:guide  inkscape:locked="false" orientation="3300,0" position="26.458313,899.58337" id="guide825"></sodipodi:guide>
	<sodipodi:guide  inkscape:locked="false" orientation="0,4300.0004" position="684.196,26.458361" id="guide827"></sodipodi:guide>
	<sodipodi:guide  inkscape:locked="false" orientation="0,-4300.0004" position="362.48432,899.58337" id="guide831">
		</sodipodi:guide>
	<sodipodi:guide  inkscape:locked="false" orientation="1,0" position="1157.8001,124.85027" id="guide21309"></sodipodi:guide>
</sodipodi:namedview>
<g id="layer2" inkscape:label="Layer 2" inkscape:groupmode="layer">
	<path id="path20057-52-7" inkscape:connector-curvature="0" fill="#F2F4FF" d="M2365.001,415.405
		c284.527-0.825,635.256,79.834,864.577,351.553c107.608,127.5,161.501,247.293,184.192,358.012
		c131.116,110.073,206.932,272.43,207.159,443.624c-0.199,105.872-29.361,209.672-84.328,300.157
		c224.43,85.958,372.641,301.375,372.701,541.704c-0.273,161.736-68.04,316.019-186.959,425.642
		c-3.737,6.081-6.013,9.427-6.013,9.427L4000,3093.013H500c0,0,141.185-38.273,264.458-103.655
		c-76.108-67.285-119.763-163.938-119.931-265.523c0.164-146.453,90.197-277.792,226.737-330.758
		c-115.218-112.352-180.203-266.455-180.226-427.383c0.56-211.643,113.121-407.173,295.861-513.94
		c-35.536-73.429-54.107-153.908-54.343-235.483c0-300.546,243.64-544.186,544.186-544.187h0
		c67.518,0.003,134.446,12.571,197.366,37.061c75.76-92.642,167.044-154.396,253.078-208.586
		C1995.928,457.262,2163.935,415.989,2365.001,415.405L2365.001,415.405z"/>
	<path id="path20059-1-3" inkscape:connector-curvature="0" fill="#E7EAFF" d="M846.717,1970.296
		c153.548,0.375,288.003,32.295,364.91,120.394c273.444,313.236,223.256,465.117,558.139,488.371
		c334.884,23.258,557.837-56.955,681.245,228.5c102.893,238.003,443.323,136.926,615.668,285.452H500
		c0,0,141.185-38.273,264.458-103.655c-76.108-67.285-119.763-163.938-119.931-265.523
		c0.164-146.453,90.197-277.792,226.737-330.758C759.573,2283.899,695.11,2135.303,691.7,1979.152
		C744.514,1973.418,796.632,1970.172,846.717,1970.296L846.717,1970.296z"/>
	<g id="g6040" transform="translate(43.844543)">
		<path id="path6015" sodipodi:nodetypes="sssss" inkscape:connector-curvature="0" fill="#CECFFF" d="M667.023,2410.924
			c4.078,58.096-39.712,108.498-97.808,112.576c-58.096,4.079-108.499-39.711-112.577-97.808
			c-4.079-58.096,39.712-108.498,97.808-112.576C612.542,2309.038,662.945,2352.828,667.023,2410.924z"/>
		<path id="path10013" sodipodi:nodetypes="sssss" inkscape:connector-curvature="0" fill="#CECFFF" d="M729.915,2585.549
			c4.982,70.979-48.517,132.556-119.494,137.538c-70.977,4.981-132.555-48.517-137.537-119.494s48.517-132.554,119.494-137.537
			C663.355,2461.073,724.933,2514.572,729.915,2585.549z"/>
		<path id="path10015" sodipodi:nodetypes="cccsccc" inkscape:connector-curvature="0" fill="#A5A3FF" d="M747.766,2244.932
			c-14.556-0.794-26.193,11.94-24.093,26.365c0,0,37.996,291.641,29.497,498.988c-0.784,12.897,9.176,23.926,22.087,24.455
			c12.911,0.528,23.74-9.646,24.015-22.564c8.799-214.66-29.843-506.884-29.843-506.884
			C768.123,2254.139,758.979,2245.544,747.766,2244.932z"/>
		<path id="path10017" sodipodi:nodetypes="cccsccc" inkscape:connector-curvature="0" fill="#CECFFF" d="M591.037,2476.006
			c-14.57,0.473-25.056,14.168-21.711,28.357c0,0,63.183,287.238,72.724,494.54c0.337,12.919,11.218,23.04,24.127,22.446
			c12.909-0.594,22.814-11.672,21.964-24.568c-9.878-214.613-73.755-502.375-73.755-502.375
			C612.117,2483.408,602.26,2475.641,591.037,2476.006z"/>
		<path id="path10019" sodipodi:nodetypes="cccsccc" inkscape:connector-curvature="0" fill="#B7BBFF" d="M947.411,2506.662
			c14.556,0.797,24.734,14.725,21.074,28.834c0,0-69.571,285.759-83.73,492.797c-0.626,12.906-11.729,22.784-24.622,21.902
			s-22.548-12.179-21.412-25.052c14.66-214.339,84.938-500.606,84.938-500.606C926.172,2513.592,936.199,2506.047,947.411,2506.662z
			"/>
		<path id="path10021" sodipodi:nodetypes="sssss" inkscape:connector-curvature="0" fill="#B7BBFF" d="M1084.017,2597.412
			c-6.763,72.995-71.419,126.688-144.415,119.924c-72.995-6.762-126.688-71.418-119.925-144.414
			c6.763-72.995,71.419-126.688,144.415-119.925C1037.087,2459.76,1090.78,2524.416,1084.017,2597.412z"/>
		<path id="path10023" sodipodi:nodetypes="ccssscc" inkscape:connector-curvature="0" fill="#CECFFF" d="M571.608,2852.83
			l28.832,186.578c4.002,29.305,23.811,53.389,53.389,53.389H891.04c29.577,0,48.853-24.16,53.389-53.389l27.18-186.578H571.608z"/>
		<path id="path10025" sodipodi:nodetypes="ccccc" inkscape:connector-curvature="0" fill="#A5A3FF" d="M571.608,2852.83
			l7.878,51.453h384.789l7.333-51.453H571.608z"/>
		<path id="path10027" sodipodi:nodetypes="sssssss" inkscape:connector-curvature="0" fill="#B7BBFF" d="M558.564,2757.498h427.474
			c29.578,0,53.389,23.813,53.389,53.391c0,29.576-23.811,53.389-53.389,53.389H558.564c-29.578,0-53.389-23.813-53.389-53.389
			C505.175,2781.311,528.986,2757.498,558.564,2757.498z"/>
		<path id="path10031" sodipodi:nodetypes="sssss" inkscape:connector-curvature="0" fill="#A5A3FF" d="M893.755,2332.646
			c-7.48,80.738-78.995,140.127-159.734,132.646s-140.126-78.996-132.646-159.734s78.996-140.126,159.733-132.646
			C841.847,2180.393,901.236,2251.908,893.755,2332.646L893.755,2332.646z"/>
		<path id="path6013" sodipodi:nodetypes="sssss" inkscape:connector-curvature="0" fill="#A5A3FF" d="M827.402,2128.854
			c-5.188,56.012-54.803,97.214-110.816,92.023c-56.013-5.188-97.213-54.803-92.023-110.815
			c5.189-56.013,54.803-97.214,110.815-92.024C791.391,2023.228,832.591,2072.842,827.402,2128.854z"/>
		<path id="path6017" sodipodi:nodetypes="sssss" inkscape:connector-curvature="0" fill="#B7BBFF" d="M1095.01,2445.613
			c-4.38,47.28-46.259,82.058-93.54,77.678c-47.281-4.381-82.058-46.26-77.678-93.541c4.38-47.279,46.26-82.057,93.54-77.678
			C1064.614,2356.453,1099.391,2398.332,1095.01,2445.613L1095.01,2445.613z"/>
		<path id="path6019" sodipodi:nodetypes="sssss" inkscape:connector-curvature="0" fill="#A5A3FF" d="M769.087,2005.315
			c-2.986,32.235-31.539,55.945-63.774,52.959c-32.234-2.986-55.945-31.538-52.958-63.773c2.986-32.234,31.538-55.944,63.773-52.958
			C748.363,1944.529,772.073,1973.081,769.087,2005.315z"/>
		<path id="path6021" sodipodi:nodetypes="sssss" inkscape:connector-curvature="0" fill="#CECFFF" d="M582.131,2311.82
			c-2.986,32.234-31.538,55.945-63.773,52.959s-55.945-31.539-52.959-63.773s31.539-55.945,63.773-52.959
			C561.407,2251.033,585.117,2279.586,582.131,2311.82z"/>
		<path id="path6023" sodipodi:nodetypes="sssss" inkscape:connector-curvature="0" fill="#B7BBFF" d="M1117.56,2366.508
			c-2.986,32.234-31.539,55.945-63.774,52.959c-32.234-2.986-55.945-31.539-52.958-63.773s31.539-55.945,63.773-52.959
			S1120.547,2334.273,1117.56,2366.508z"/>
	</g>
	<path id="rect25806-8-3" sodipodi:nodetypes="ssssscssss" inkscape:connector-curvature="0" fill="#B7BBFF" d="M2117.606,406.967
		h1099.338c129.535,0,233.818,104.283,233.818,233.818v2218.41c0,129.536-104.329,230.375-233.818,233.818h-537.755h-561.583
		c-129.536,0-233.819-104.282-233.819-233.818V640.785C1883.788,511.25,1988.071,406.967,2117.606,406.967z"/>
	<path id="path25898-5-3" sodipodi:nodetypes="ssssscssss" inkscape:connector-curvature="0" fill="#F2F4FF" d="M2198.125,540.924
		h938.301c103.367,0,186.583,83.216,186.583,186.583v1851.652c0,103.367-83.253,183.836-186.583,186.583H2646.26h-448.135
		c-103.368,0-186.583-83.216-186.583-186.583V727.507C2011.542,624.141,2094.757,540.924,2198.125,540.924z"/>
	<path id="path25902-9-6" inkscape:connector-curvature="0" fill="#E3E1FF" d="M2765.202,2927.682
		c0,54.084-43.844,97.928-97.927,97.926c-54.084,0-97.928-43.842-97.928-97.926s43.844-97.928,97.928-97.928
		C2721.358,2829.754,2765.202,2873.598,2765.202,2927.682L2765.202,2927.682z"/>
	<path id="path913-0-5" sodipodi:nodetypes="cccccc" inkscape:connector-curvature="0" fill="#F6C6C0" d="M1564.389,3008.118
		l-8.139-66.259h79.389h18.911l1.644,93.363L1564.389,3008.118z"/>
	<path id="path5996" sodipodi:nodetypes="ccccccccccccccc" inkscape:connector-curvature="0" fill="#6584F7" d="M1493.624,844.298
		c-52.129,0.021-97.45,2.718-134.273,2.121c-94.726-1.539-125.453,5.542-206.836,81.548c-15.337,18.258-33.78,38.838-53.495,60.557
		c3.832,244.18-2.637,487.481-9.111,731.488h370.228c6.687-22.224,13.065-43.295,19.401-63.5
		c39.5,14.883,75.575,27.036,101.746,39.639l71.235-124.729c0,0-59.342-25.52-119.67-58.331
		c26.788-57.563,60.986-111.306,112.882-169.701c95.801-130.072,130.688-169.411,34.574-398.85
		c-83.883-54.56-176.164-100.208-176.164-100.208C1500.605,844.307,1497.1,844.296,1493.624,844.298L1493.624,844.298z"/>
	<path id="path883-9" sodipodi:nodetypes="ccc" inkscape:connector-curvature="0" fill="#F69CB3" d="M1765.609,700.638l8.771,64.869
		C1858.781,776.895,1867.033,581.095,1765.609,700.638z"/>
	<path id="path876-7-88" sodipodi:nodetypes="cccc" inkscape:connector-curvature="0" fill="#3D3D3D" d="M1834.127,577.225
		c0,0,25.582,12.519,33.875,41.691c8.294,29.172-60.299,99.799-60.299,99.799L1834.127,577.225z"/>
	<path id="path874-7-7" sodipodi:nodetypes="cccccsssc" inkscape:connector-curvature="0" fill="#3D3D3D" d="M1611.124,504.317
		c0,0-37.439-11.573-59.392,33.376c-21.953,44.95-2.692,145.803-2.692,145.803c-23.172,62.819-14.341,119.798,56.957,73.741
		c32.78-22.901,87.991-180.53,87.991-180.53s98.334,41.323,148.611,19.651c50.278-21.671,119.315-106.647,65.425-139.465
		s-77.555,5.472-202.045-31.214C1640.965,406.521,1600.397,453.62,1611.124,504.317L1611.124,504.317z"/>
	<path id="path885-8" sodipodi:nodetypes="cccccc" inkscape:connector-curvature="0" fill="#F6C6C0" d="M1562.627,713.201
		l-44.95,113.249l73.167,156.141l37.937-41.468l15.198-85.411L1562.627,713.201z"/>
	<path id="path887-3-8" inkscape:connector-curvature="0" fill="#F69CB3" d="M1562.627,713.202l81.351,142.51l-12.674,71.229
		c-13.8-2.643-26.65-8.938-34.744-21.692c-25.66-40.437-15.68-124.767-15.68-124.767L1562.627,713.202z"/>
	<path id="path870-4-1" sodipodi:nodetypes="ccccc" inkscape:connector-curvature="0" fill="#F6C6C0" d="M1562.627,713.201
		c-79.997-29.221,3.87-206.342,37.966-53.324c25.727-25.939,74.845-61.117,68.678-124.963
		c56.289,35.062,103.254,63.045,173.327,61.445C1798.104,888.834,1611.624,1027.267,1562.627,713.201L1562.627,713.201z"/>
	<path id="path894-3-4" sodipodi:nodetypes="cccscc" inkscape:connector-curvature="0" fill="#F69CB3" d="M1575.841,675.392
		c0.726-1.371,1.576-23.634-6.867-41.219s-22.999-2.581-22.999-2.581s11.768-0.581,15.45,11.179s-20.291,19.399-4.002,36.597
		C1573.71,696.565,1575.841,675.392,1575.841,675.392L1575.841,675.392z"/>
	<path id="path881-1-2" sodipodi:nodetypes="cccccc" inkscape:connector-curvature="0" fill="#FFFFFF" d="M1590.844,982.59
		l-73.167-156.141l12.311-30.567c-35.155,13.681-53.875,31.207-53.536,50.026l32.789,164.413L1590.844,982.59z"/>
	<path id="path884-3-21" sodipodi:nodetypes="cccccc" inkscape:connector-curvature="0" fill="#FFFFFF" d="M1628.78,941.123
		l8.498-48.47c29.426,15.181,56.625,42.006,42.29,69.157c-4.425,7.984-45.491,102.009-45.491,102.009l-43.233-81.228
		L1628.78,941.123z"/>
	<path id="path17531-2" sodipodi:nodetypes="ccccccccccccccccccc" inkscape:connector-curvature="0" fill="#FF6853" d="
		M1459.622,1747.355l166.66,484.904c25.499,69.177,34.949,127.243,34.463,199.379l-1.867,277.663l-4.329,232.558h-98.299
		l-24.415-232.558l-58.109-339.395l-173.671-290.597l-47.03,269.221c-6.99,40.77-14.063,64.967-25.256,98.26l-89.448,266.108
		l-71.836,228.96h-90.16l37.28-232.558l55.544-339.384l8.451-350.188l5.939-246.035L1459.622,1747.355z"/>
	<path id="path935-5-2" inkscape:connector-curvature="0" fill="#E0523C" d="M1531.835,2709.302h127.043l-4.329,232.558h-98.299
		L1531.835,2709.302z"/>
	<path id="path933-4" sodipodi:nodetypes="ccccc" inkscape:connector-curvature="0" fill="#E0523C" d="M1013.604,2709.302
		l124.717,3.598l-71.836,228.96h-90.16L1013.604,2709.302z"/>
	<path id="path925-0-89" sodipodi:nodetypes="ccccc" inkscape:connector-curvature="0" fill="#E0523C" d="M1300.055,2079.311
		l36.401-154.288h37.074l-8.928,261.672L1300.055,2079.311z"/>
	<path id="path927-1" sodipodi:nodetypes="ccccc" inkscape:connector-curvature="0" fill="#FFFFFF" d="M1460.136,1720.012
		l-0.03,27.309l-376.566,26.374l6.368-53.683H1460.136z"/>
	<path id="path915-1-7" sodipodi:nodetypes="ccccc" inkscape:connector-curvature="0" fill="#FFFFFF" d="M1654.549,2971.254
		l-95.135,1.104l4.975,35.761c0,0,91.354-5.955,91.559-6.983C1656.153,3000.107,1654.549,2971.254,1654.549,2971.254z"/>
	<path id="path929-1-3" sodipodi:nodetypes="ccccccc" inkscape:connector-curvature="0" fill="#3D3D3D" d="M1813.917,3093.021
		h-258.996l9.467-84.902l30.848-8.438c21-20.274,59.438-25.246,85.671,4.631c0,0,48.013,34.546,71.434,35.132
		C1799.791,3039.444,1817.527,3048.525,1813.917,3093.021L1813.917,3093.021z"/>
	<path id="path924-5-2" sodipodi:nodetypes="cccccc" inkscape:connector-curvature="0" fill="#F6C6C0" d="M1047.928,3013.964
		l18.559-72.104h-71.25h-18.911l-12.11,93.363L1047.928,3013.964z"/>
	<path id="path926-4-32" sodipodi:nodetypes="ccccc" inkscape:connector-curvature="0" fill="#FFFFFF" d="M972.233,2971.254
		l85.859,2.902l-10.165,39.808c0,0-83.26-11.801-83.465-12.829C964.256,3000.107,972.233,2971.254,972.233,2971.254
		L972.233,2971.254z"/>
	<path id="path928-3-77" sodipodi:nodetypes="cccccc" inkscape:connector-curvature="0" fill="#3D3D3D" d="M896.625,3093.021
		c-27.742,0,104.5,0,152.934,0l-1.631-79.058l-22.754-14.282c-21-20.274-52.94-28.428-70.555,1.434
		C931.777,3060.268,892.931,3035.74,896.625,3093.021L896.625,3093.021z"/>
	<path id="path6341" sodipodi:nodetypes="cccc" inkscape:connector-curvature="0" fill="#3362C4" d="M1222.851,1151.098
		l-127.485,123.923l133.895,86.389L1222.851,1151.098z"/>
	<path id="path6361" sodipodi:nodetypes="scccccccccs" inkscape:connector-curvature="0" fill="#F6CDC1" d="M1792.828,1603.875
		c9.859-0.049,18.715,0.743,24.869,2.937c24.613,8.775,1.563,52.085,1.563,52.085s36.098,17.819,48.692,24.578
		c8.919,7.741,16.212,20.231,11.34,39.717c-13.158,53.12-102.345,90.109-155.678,65.625c-16.289-8.857-84.621-88.858-84.621-88.858
		l-2.436-1.679l42.83-80.852c10.844,0.301,23.473-2.675,43.54-5.429C1724.654,1611.762,1763.253,1604.025,1792.828,1603.875
		L1792.828,1603.875z"/>
	<path id="path6363" sodipodi:nodetypes="ccccc" inkscape:connector-curvature="0" fill="#FFFFFF" d="M1625.303,1719.523
		l63.329-119.552l-36.113-28.55l-71.234,124.729L1625.303,1719.523z"/>
	<path id="path6365" sodipodi:nodetypes="ccccc" inkscape:connector-curvature="0" fill="#F69CB3" d="M1638.991,1699.958
		l85.992-88.364l-45.597,5.833l-42.83,80.852L1638.991,1699.958z"/>
	<path id="circle28313" inkscape:connector-curvature="0" fill="#E3E1FF" d="M1345.335,1562.353
		c-0.764,159.201-130.44,287.641-289.642,286.877c-159.201-0.763-287.64-130.439-286.876-289.641l0,0
		c0.763-159.201,130.44-287.641,289.641-286.877S1346.099,1403.151,1345.335,1562.353L1345.335,1562.353z"/>
	<path id="path28315" inkscape:connector-curvature="0" fill="#B7BBFF" d="M1056.336,1350.418
		c-19.238,0.201-34.678,15.945-34.503,35.184l-0.071,14.743c-44.507,16.361-72.974,61.897-67.057,109.789
		c6.259,50.661,49.194,89.405,100.021,90.715c0.719,0.044,1.439,0.065,2.158,0.064c17.326,0.083,31.315,12.59,33.328,29.798
		c2.012,17.21-8.713,32.618-25.552,36.695c-16.839,4.078-33.425-4.713-39.508-20.936c-6.694-18.057-26.758-27.27-44.815-20.577
		c-18.058,6.694-27.271,26.758-20.577,44.815c0.03,0.083,0.061,0.166,0.092,0.248c10.74,28.643,33.292,50.019,60.324,60.296v4.889
		c-0.308,19.254,15.051,35.114,34.306,35.422c19.255,0.308,35.115-15.052,35.423-34.307c0.004-0.261,0.005-0.521,0.004-0.782v-3.874
		c45.607-15.477,75.248-61.393,69.567-109.987c-5.958-50.96-49.034-90.07-100.124-91.374c-0.708-0.041-1.418-0.061-2.128-0.06
		c-17.235-0.082-31.189-12.485-33.303-29.591c-2.114-17.106,8.406-32.524,25.103-36.799s33.325,4.198,39.692,20.214
		c7.002,17.94,27.22,26.807,45.16,19.804c17.939-7.002,26.806-27.22,19.805-45.16c-0.053-0.137-0.107-0.272-0.162-0.408
		c-11.371-28.602-34.551-49.638-62.016-59.307l0.068-13.994c0.36-19.254-14.957-35.154-34.21-35.514
		c-0.34-0.007-0.679-0.008-1.02-0.004L1056.336,1350.418z"/>
	<path id="path28322" sodipodi:nodetypes="csscccccc" inkscape:connector-curvature="0" fill="#6584F7" d="M1099.019,988.523
		c0,0-71.439,76.914-122.526,131.09c-53.403,56.633-96.608,134.094-97.651,215.343c-1.072,83.481-3.304,327.822-3.304,327.822
		l143.613-2.683l24.34-331.394l97.66-98.193l20.148-138.323L1099.019,988.523z"/>
	<path id="path22607-4" sodipodi:nodetypes="cccccccc" inkscape:connector-curvature="0" fill="#F6CDC1" d="M884.761,1828.166
		c-0.734-18.526,17.056-113.87,17.056-113.87l0.194-2.952l91.379-4.614c5.291,9.47,14.319,18.792,26.959,34.618
		c-1.376,2.904,34.963,40.487,51.635,61.659c5.066,25.635-42.589,45.101-42.589,45.101c21.694,77.55-138.929,86.041-144.636-19.942
		H884.761z"/>
	<path id="path22609-7" sodipodi:nodetypes="ccccc" inkscape:connector-curvature="0" fill="#FFFFFF" d="M878.002,1712.557
		l135.117-6.824l6.031-45.639l-143.613,2.683L878.002,1712.557z"/>
	<path id="path22611-5" sodipodi:nodetypes="ccccc" inkscape:connector-curvature="0" fill="#F69CB3" d="M901.816,1714.296
		l119.934,28.612l-28.359-36.178l-91.379,4.614L901.816,1714.296z"/>
	<path id="rect5988" sodipodi:nodetypes="sssssssss" inkscape:connector-curvature="0" fill="#E3E1FF" d="M2566.951,1058.139
		h178.053c90.186,0,162.791,72.604,162.791,162.791v1017.442c0,90.186-72.605,162.791-162.791,162.791h-178.053
		c-90.186,0-162.791-72.605-162.791-162.791V1220.929C2404.16,1130.743,2476.766,1058.139,2566.951,1058.139L2566.951,1058.139z"/>
	<path id="rect5968" sodipodi:nodetypes="ssssccs" inkscape:connector-curvature="0" fill="#A5A3FF" d="M1912.99,1261.627
		c-79.713,0-143.888,64.174-143.888,143.889v613.052c0,79.713,64.175,143.888,143.888,143.888h798.399v-900.828H1912.99z"/>
	<path id="path5974" sodipodi:nodetypes="cccc" inkscape:connector-curvature="0" fill="#F6CDC1" d="M1724.983,1611.594
		c0,0,60.923-17.178,85.724-5.095c13.394,6.525-34.975,48.329-34.975,48.329L1724.983,1611.594z"/>
	<circle id="path5976" fill="#F2F4FF" cx="2063.467" cy="1920.42" r="114.462"/>
	<circle id="circle5978" fill="#E3E1FF" cx="2216.084" cy="1920.42" r="114.462"/>
	<rect id="rect5980" x="2193.192" y="1605.014" fill="#E3E1FF" width="148.176" height="63.59"/>
	<rect id="rect5982" x="2409.208" y="1605.014" fill="#E3E1FF" width="148.177" height="63.59"/>
	<rect id="rect5984" x="2619.869" y="1605.014" fill="#E3E1FF" width="148.178" height="63.59"/>
	<rect id="rect5991" x="1943.918" y="1605.014" fill="#E3E1FF" width="148.176" height="63.59"/>
	<path id="path5999" inkscape:connector-curvature="0" fill="#3362C4" d="M1532.848,1513.091l-53.311,143.421l109.131-114.999
		L1532.848,1513.091z"/>
	<path id="circle10041" inkscape:connector-curvature="0" fill="#A5A3FF" d="M3741.584,1797.305
		c0,154.327-125.107,279.435-279.435,279.436c-154.328,0-279.435-125.107-279.435-279.435c0-0.001,0-0.001,0-0.001
		c0-154.328,125.106-279.435,279.435-279.435C3616.477,1517.87,3741.584,1642.977,3741.584,1797.305L3741.584,1797.305z"/>
	<path id="rect10081" inkscape:connector-curvature="0" fill="#A5A3FF" d="M3588.835,1536.336c19.403,0,35.023,39.397,35.023,88.334
		v1329.146c0,48.938-15.621,88.335-35.023,88.335c-19.403,0-35.023-39.397-35.023-88.335V1624.67
		C3553.812,1575.733,3569.432,1536.336,3588.835,1536.336z"/>
	<path id="path10037" inkscape:connector-curvature="0" fill="#E3E1FF" d="M3889.568,1327.761
		c0,174.194-141.214,315.407-315.407,315.407c-174.195,0-315.407-141.213-315.407-315.407
		c0-174.195,141.212-315.407,315.407-315.407l0,0C3748.354,1012.354,3889.568,1153.566,3889.568,1327.761L3889.568,1327.761z"/>
	<path id="circle10039" inkscape:connector-curvature="0" fill="#B7BBFF" d="M3980.414,1660.611
		c0,154.327-125.107,279.435-279.436,279.435c-154.327,0-279.434-125.107-279.434-279.435
		c0-154.328,125.106-279.435,279.434-279.435C3855.307,1381.176,3980.414,1506.284,3980.414,1660.611L3980.414,1660.611z"/>
	<path id="path10055" sodipodi:nodetypes="ccssscc" inkscape:connector-curvature="0" fill="#CECFFF" d="M3412.192,2849.014
		l28.831,190.395c4.002,29.305,23.812,53.389,53.389,53.389h238.802c29.577,0,48.854-24.16,53.389-53.389l27.181-190.395H3412.192z"
		/>
	<path id="path10057" sodipodi:nodetypes="ccccc" inkscape:connector-curvature="0" fill="#B7BBFF" d="M3412.192,2849.014
		l8.175,55.27h385.616l7.8-55.27H3412.192z"/>
	<path id="rect10089" sodipodi:nodetypes="sssssss" inkscape:connector-curvature="0" fill="#A5A3FF" d="M3793.599,2444.326
		c17.188,9.001,12.752,51.149-9.948,94.502l-113.913,217.551c-22.7,43.354-54.813,71.01-72.003,62.01s-12.752-51.148,9.948-94.502
		l113.913-217.551C3744.296,2462.982,3776.409,2435.326,3793.599,2444.326z"/>
	<path id="path10059" sodipodi:nodetypes="sssssss" inkscape:connector-curvature="0" fill="#CECFFF" d="M3400.738,2757.498h427.474
		c29.578,0,53.39,23.813,53.39,53.389c0,29.578-23.812,53.391-53.39,53.391h-427.474c-29.578,0-53.389-23.813-53.389-53.391
		C3347.35,2781.311,3371.16,2757.498,3400.738,2757.498z"/>
	<path id="circle10083" inkscape:connector-curvature="0" fill="#A5A3FF" d="M3939.976,2478.181
		c0,57.419-46.546,103.966-103.965,103.966l0,0c-57.419,0-103.966-46.547-103.966-103.966l0,0
		c0-57.418,46.547-103.966,103.966-103.966C3893.429,2374.215,3939.976,2420.762,3939.976,2478.181L3939.976,2478.181z"/>
	<path id="circle10085" inkscape:connector-curvature="0" fill="#E3E1FF" d="M3934.205,2278.937
		c0,90.599-73.443,164.043-164.042,164.043l0,0c-90.598,0-164.042-73.444-164.042-164.043c0-90.598,73.444-164.042,164.042-164.042
		C3860.762,2114.895,3934.205,2188.339,3934.205,2278.937z"/>
	<path id="circle10087" inkscape:connector-curvature="0" fill="#B7BBFF" d="M3792.603,2441.26
		c0,80.266-65.069,145.334-145.334,145.334s-145.333-65.068-145.333-145.334c0-80.265,65.068-145.332,145.333-145.332
		S3792.603,2360.995,3792.603,2441.26L3792.603,2441.26z"/>
	<path id="rect6042" fill="#B7BBFF" d="M2196.789,694.921h917.978v63.59h-917.978V694.921z"/>
	<path id="rect6044" fill="#B7BBFF" d="M2193.192,846.004h317.245v63.59h-317.245V846.004z"/>
</g>
</svg>
